<?xml version="1.0" encoding="UTF-8" standalone="no"?>
<svg
   xmlns:dc="http://purl.org/dc/elements/1.1/"
   xmlns:cc="http://creativecommons.org/ns#"
   xmlns:rdf="http://www.w3.org/1999/02/22-rdf-syntax-ns#"
   xmlns:svg="http://www.w3.org/2000/svg"
   xmlns="http://www.w3.org/2000/svg"
   viewBox="0 0 666.66669 666.66669"
   height="666.66669"
   width="666.66669"
   xml:space="preserve"
   id="svg2"
   version="1.1"><metadata
     id="metadata8"><rdf:RDF><cc:Work
         rdf:about=""><dc:format>image/svg+xml</dc:format><dc:type
           rdf:resource="http://purl.org/dc/dcmitype/StillImage" /></cc:Work></rdf:RDF></metadata><defs
     id="defs6" /><g
     transform="matrix(1.3333333,0,0,-1.3333333,0,666.66667)"
     id="g10"><g
       transform="scale(0.1)"
       id="g12"><path
         id="path14"
         style="fill:#ffffff;fill-opacity:1;fill-rule:nonzero;stroke:none"
         d="M 5000,0 H 0 V 5000 H 5000 V 0" /><path
         id="path16"
         style="fill:#231f20;fill-opacity:1;fill-rule:nonzero;stroke:none"
         d="m 963.863,3547.92 c -3.511,0 -6.136,0.24 -8.718,-0.03 -42.809,-4.43 -85.633,-8.8 -128.422,-13.46 -36.625,-3.98 -73.254,-7.97 -109.805,-12.63 -15.027,-1.92 -14.926,-2.71 -11.484,-20.3 86.113,7.11 172.414,14.24 258.429,21.34 0,9.24 0,16.83 0,25.08 z m 322.667,476.66 c -9.3,21.08 -16.69,40.22 -25.96,58.39 -28.75,56.34 -123.96,67.82 -165.17,8.65 -14.61,-20.98 -24.51,-43.92 -29.61,-68.93 -0.74,-3.61 -0.44,-7.44 -0.71,-13.16 73.26,4.98 145.43,9.88 221.45,15.05 z M 974.07,3989.8 c 0,-40.78 -0.531,-79.97 0.118,-119.14 1.265,-76.53 3.175,-153.04 4.851,-229.57 3.024,-138.28 6.063,-276.57 9.109,-414.85 0.528,-24.09 1.165,-48.16 1.625,-72.25 0.125,-6.35 0.122,-13.68 -8.687,-13.55 -8.484,0.13 -7.32,7.42 -7.449,13.15 -2.367,109.15 -4.696,218.31 -7.129,327.46 -0.176,8.08 -1.059,16.14 -1.695,25.39 -86.93,-7.2 -172.993,-14.32 -259.911,-21.5 -0.359,-3.09 -1,-6.04 -1.007,-8.99 -0.2,-104.11 -0.344,-208.22 -0.5,-312.33 -0.004,-3.11 0.976,-6.77 -0.344,-9.16 -1.602,-2.91 -4.949,-6.13 -7.934,-6.58 -2.226,-0.33 -5.57,3.16 -7.465,5.67 -1.191,1.58 -0.8,4.49 -0.816,6.8 -0.609,79.65 -1.43,159.3 -1.66,238.95 -0.121,40.78 0.914,81.57 1.191,122.35 0.055,7.92 2.953,12.45 11.082,13.45 38.117,4.67 76.168,9.94 114.344,14.07 50.48,5.44 101.059,10.01 152.477,15.04 -3.176,142.73 -6.305,283.59 -9.45,425.24 -15.324,1.56 -29.933,2.68 -44.429,4.67 -7.637,1.04 -15.328,2.87 -22.536,5.57 -15.57,5.83 -24.332,18.88 -23.722,33.78 0.68,16.83 13.683,34.21 29.762,39.76 14.652,5.07 30.144,1.11 39.578,-11.59 3.406,-4.57 4.863,-11.17 5.433,-17.02 0.25,-2.53 -3.718,-7.35 -6.277,-7.73 -2.512,-0.37 -7.531,3.1 -8.195,5.71 -2.563,10.11 -8.766,16.24 -18.61,16.16 -10.519,-0.09 -17.789,-7.05 -22.312,-16.38 -5.914,-12.21 -2.36,-23.35 10.746,-26.91 15.609,-4.24 31.863,-7.7 47.961,-8.27 34.812,-1.22 69.701,-0.37 103.451,-0.37 13.43,66.41 35.13,122.48 107.04,139.56 0,13.88 -0.02,27.74 0,41.61 0,3.89 -0.98,8.25 0.44,11.54 1.69,3.9 5.49,6.89 8.37,10.27 2.76,-3.6 7.7,-7.08 7.9,-10.81 0.87,-16.58 0.38,-33.24 0.38,-51.52 81.93,-0.8 113.55,-53.05 130.96,-121.35 14.31,1.22 28.12,2.17 41.89,3.64 26.99,2.87 54.21,4.73 80.85,9.61 14.86,2.73 29.19,9.85 42.95,16.61 8.84,4.35 13.59,13.44 11.22,23.61 -2.72,11.62 -12.26,16.79 -23.12,18.52 -9.95,1.59 -17.7,-2.57 -23.8,-11.12 -2.51,-3.52 -8.01,-4.92 -12.16,-7.28 -0.48,5.51 -3.21,12.2 -1.05,16.33 7.34,14.06 20.68,20.01 36,18.89 18.33,-1.35 33.3,-10.12 39.39,-28.1 5.12,-15.08 0.6,-29.36 -11.34,-40.3 -15.45,-14.16 -34.51,-21.63 -54.77,-23.76 -60.97,-6.39 -122.04,-11.79 -183.12,-17.09 -34.8,-3.01 -69.67,-5.38 -104.53,-7.49 -41.47,-2.5 -82.97,-4.44 -124.46,-6.57 -13.91,-0.71 -27.835,-1.25 -40.64,-1.83" /><path
         id="path18"
         style="fill:#231f20;fill-opacity:1;fill-rule:nonzero;stroke:none"
         d="m 2268.79,1011.27 c -143.38,4.42 -284.19,27.44 -423.31,61.86 -124.99,30.93 -246.85,71.09 -364.83,122.73 -14.88,6.51 -29.11,14.64 -43.25,22.7 -7.48,4.26 -11.26,11.38 -6.43,19.75 4.83,8.37 12.53,8.48 20.24,4.18 63.41,-35.37 131.74,-58.95 199.95,-82.5 163.53,-56.45 331.18,-95.17 503.36,-113.52 59.54,-6.35 119.13,-11.68 179.12,-6.8 4.98,0.41 10.13,0.03 15.08,-0.76 8.1,-1.31 14.04,-5.41 13.27,-14.66 -0.75,-8.97 -6.79,-12.85 -15.13,-12.91 -26.02,-0.2 -52.05,-0.07 -78.07,-0.07" /><path
         id="path20"
         style="fill:#231f20;fill-opacity:1;fill-rule:nonzero;stroke:none"
         d="m 2204.29,1167.32 c -165.6,9.83 -352.79,34.17 -535.85,85.56 -59.02,16.56 -118.8,30.59 -174.68,56.86 -10.73,5.05 -15.19,10.69 -12.16,18.83 3.07,8.26 12.6,11.76 22.61,7.8 168.34,-66.63 344.05,-102.5 523,-124.04 62.82,-7.56 126,-12.64 189.14,-17.04 46.98,-3.27 93.98,-1.28 140.25,9.33 4.46,1.02 9.29,1.2 13.87,0.81 7.86,-0.68 13.27,-5.05 13.77,-13.21 0.53,-8.42 -4.73,-12.54 -12.53,-14.15 -47.43,-9.78 -95.37,-12.97 -167.42,-10.75" /><path
         id="path22"
         style="fill:#231f20;fill-opacity:1;fill-rule:nonzero;stroke:none"
         d="m 1868.93,1350.01 c -103.39,0.31 -208.9,12.62 -313.2,35.54 -5.65,1.24 -11.36,2.85 -16.58,5.27 -7.66,3.55 -11.18,9.98 -7.91,18.2 3.09,7.81 9.76,9.14 17.43,7.63 39.97,-7.91 79.71,-17.44 119.98,-23.27 109.15,-15.81 218.96,-20.97 328.92,-11.21 101.78,9.02 200.74,31.68 296.32,68.33 11.61,4.44 20.05,2.11 22.64,-6.48 3.2,-10.57 -3.31,-15.88 -11.92,-19.49 -50.67,-21.28 -103.79,-34.29 -157.11,-46.82 -90.52,-21.29 -182.25,-30.26 -278.57,-27.7" /><path
         id="path24"
         style="fill:#231f20;fill-opacity:1;fill-rule:nonzero;stroke:none"
         d="m 926.934,857.852 c 38.437,0 76.886,0.277 115.316,-0.2 9.17,-0.121 18.55,-2.011 27.39,-4.582 8.71,-2.539 14.24,-9.168 10.86,-18.718 -3.13,-8.852 -10.48,-9.133 -19.24,-8.051 -19.97,2.449 -40.14,4.929 -60.21,4.781 -69.859,-0.473 -139.987,1.387 -209.523,-3.961 C 651.211,816.34 519.848,775.469 401.133,697.898 c -12.664,-8.269 -25.699,-16 -38.317,-24.347 -10.289,-6.801 -18.753,-7.18 -23.761,-0.309 -5.188,7.117 -2.707,16.977 7.746,23.547 29.25,18.363 58.558,36.672 88.488,53.883 96.637,55.617 201.547,86.699 311.57,99.84 59.629,7.117 119.871,9.09 179.836,13.379 0.082,-2.02 0.16,-4.032 0.239,-6.039" /><path
         id="path26"
         style="fill:#231f20;fill-opacity:1;fill-rule:nonzero;stroke:none"
         d="m 715.563,1000.46 c 138.023,1.72 253.125,-21.819 365.797,-59.319 6.88,-2.289 13.7,-5.711 19.53,-9.993 7.78,-5.718 9.45,-16.699 4.08,-22.668 -6.89,-7.66 -13.73,-5.25 -21.62,-0.199 -7.35,4.711 -15.91,7.867 -24.31,10.559 -113.188,36.09 -228.497,57.75 -348.048,53.199 -69.105,-2.629 -135.301,-16.898 -199.121,-43.078 -14.703,-6.039 -29.504,-11.859 -44.191,-17.93 -7.891,-3.261 -14.953,-2.41 -19.149,5.301 -4.199,7.699 -1.054,14.27 5.918,18.996 2.231,1.524 4.637,2.852 7.117,3.934 86.985,37.738 176.52,64.188 253.997,61.198" /><path
         id="path28"
         style="fill:#231f20;fill-opacity:1;fill-rule:nonzero;stroke:none"
         d="m 1073.4,780.461 c -0.66,-12.891 -6.94,-15.813 -14.57,-18.039 C 994.844,743.738 930.332,726.621 867.102,705.641 790.297,680.16 716.09,647.672 650.055,600.25 613.316,573.879 580.309,542.309 545.652,513.051 c -2.066,-1.75 -3.636,-5.211 -5.781,-5.52 -5.961,-0.89 -13.328,-2.722 -17.898,-0.172 -6.946,3.879 -6.641,11.961 -2.067,18.45 3.324,4.722 7.551,8.851 11.637,12.98 70.414,71.09 153.305,123.492 245.039,162.27 87.348,36.941 177.195,66.382 269.698,87.531 4.85,1.109 10.57,2.781 14.77,1.199 5.29,-1.969 9.44,-7.008 12.35,-9.328" /><path
         id="path30"
         style="fill:#231f20;fill-opacity:1;fill-rule:nonzero;stroke:none"
         d="m 1422.73,3253.54 c 1.47,-37.23 2.89,-74.47 4.46,-111.7 0.27,-6.34 -0.09,-12.41 -7.99,-12.7 -7.78,-0.28 -8.91,5.52 -9.12,12 -2.4,74.89 -4.81,149.78 -7.45,224.66 -2.98,84.18 -6.19,168.36 -9.32,252.53 -3.09,83.02 -6.09,166.03 -9.34,249.03 -1.72,43.83 -3.9,87.64 -5.83,131.46 -0.27,6.36 -0.48,13.47 8.08,14.16 8.4,0.68 8.83,-6.8 9.08,-12.28 1.43,-32.18 2.33,-64.4 3.5,-96.59 3.01,-82.24 6.14,-164.48 9.08,-246.72 2.53,-70.61 4.71,-141.23 7.34,-211.83 2.39,-64.01 5.17,-128.01 7.77,-192.01 -0.08,0 -0.17,0 -0.26,-0.01" /><path
         id="path32"
         style="fill:#231f20;fill-opacity:1;fill-rule:nonzero;stroke:none"
         d="m 1361.35,3166.96 c 0,-5.82 0.77,-11.79 -0.31,-17.41 -0.57,-2.98 -3.94,-6.63 -6.81,-7.51 -1.8,-0.56 -5.6,3.02 -7.4,5.54 -1.43,1.99 -1.49,5.17 -1.63,7.85 -2.64,51.55 -5.06,103.11 -7.83,154.65 -2.72,50.75 -5.95,101.48 -8.63,152.24 -4.28,80.99 -8.13,162 -12.46,242.98 -3.48,65.1 -7.42,130.16 -11.07,195.25 -0.42,7.36 -1.06,14.86 -0.08,22.08 0.5,3.67 4.37,6.89 6.72,10.31 2.98,-3.45 8.15,-6.66 8.55,-10.38 1.81,-16.95 2.34,-34.05 3.21,-51.1 3.36,-66.28 6.5,-132.58 10.06,-198.85 4.34,-80.59 9.16,-161.15 13.5,-241.75 4.21,-78.28 8.03,-156.58 12.11,-234.87 0.51,-9.69 1.59,-19.34 2.41,-29.01 -0.11,-0.01 -0.23,-0.01 -0.34,-0.02" /><path
         id="path34"
         style="fill:#231f20;fill-opacity:1;fill-rule:nonzero;stroke:none"
         d="m 1057.99,3261.9 c -3.13,90.39 -6.38,180.77 -9.34,271.17 -1.98,60.52 -3.39,121.06 -5.35,181.58 -2.05,63.24 -4.58,126.46 -6.5,189.71 -0.2,6.46 -3.97,17.3 7.38,17.44 11.59,0.15 8.68,-10.79 8.91,-17.93 2.66,-83.03 5.01,-166.07 7.65,-249.1 3,-94.28 6.21,-188.55 9.34,-282.83 2.32,-69.83 4.65,-139.66 7.04,-209.5 0.24,-6.97 2.15,-14.11 1.1,-20.83 -0.66,-4.22 -5.39,-7.8 -8.29,-11.66 -2.62,3.63 -7.34,7.16 -7.53,10.92 -2.01,40.32 -3.32,80.67 -4.82,121.01 0.14,0.01 0.28,0.01 0.41,0.02" /><path
         id="path36"
         style="fill:#231f20;fill-opacity:1;fill-rule:nonzero;stroke:none"
         d="m 1221.46,3922.49 c 3.32,3.76 6.65,7.53 9.97,11.29 2.94,-3.71 8.2,-7.28 8.46,-11.17 5.72,-87.53 10.99,-175.09 16.13,-262.65 5.02,-85.65 9.66,-171.32 14.72,-256.97 4.8,-81.35 10.03,-162.68 14.54,-244.05 0.22,-3.95 -4.69,-8.19 -7.21,-12.29 -2.83,3.79 -7.8,7.41 -8.14,11.42 -2.66,30.93 -4.56,61.93 -6.45,92.93 -3.31,54.23 -6.51,108.47 -9.62,162.72 -4.11,71.69 -7.92,143.38 -12.17,215.05 -4.23,71.28 -8.9,142.53 -13.26,213.81 -1.59,25.95 -2.83,51.92 -4.23,77.88 -0.91,0.68 -1.83,1.36 -2.74,2.03" /><path
         id="path38"
         style="fill:#231f20;fill-opacity:1;fill-rule:nonzero;stroke:none"
         d="m 1172.43,3299.06 c 1.61,-47.73 3.24,-95.47 4.83,-143.21 0.1,-3.1 0.78,-6.56 -0.32,-9.22 -1.28,-3.08 -4.11,-7.45 -6.51,-7.6 -2.61,-0.18 -7.42,3.46 -7.92,6.07 -1.59,8.32 -1.91,16.93 -2.2,25.45 -3.23,94.69 -6.26,189.39 -9.56,284.08 -2.94,84.6 -6.1,169.19 -9.27,253.78 -2.51,66.74 -5.32,133.46 -7.45,200.21 -0.14,4.17 4.45,8.49 6.84,12.74 2.97,-3.71 8.3,-7.26 8.53,-11.14 2.02,-32.93 3.24,-65.93 4.46,-98.92 3.07,-83.43 6.09,-166.86 9,-250.3 2.56,-73.35 4.9,-146.7 7.49,-220.05 0.49,-13.97 1.66,-27.91 2.52,-41.86 -0.15,-0.01 -0.3,-0.02 -0.44,-0.03" /><path
         id="path40"
         style="fill:#231f20;fill-opacity:1;fill-rule:nonzero;stroke:none"
         d="m 908.215,3204.82 c -0.086,12.92 8.465,22.57 19.848,22.42 11.96,-0.17 24.988,-12.04 25.222,-23 0.32,-14.6 -8.68,-24.67 -21.914,-24.52 -13.543,0.15 -23.066,10.48 -23.156,25.1" /><path
         id="path42"
         style="fill:#231f20;fill-opacity:1;fill-rule:nonzero;stroke:none"
         d="m 735.523,3426.87 c -0.085,13.15 10.45,26.31 21.27,26.56 11.582,0.26 22.109,-11.06 22.059,-23.75 -0.047,-14.13 -9.59,-25.2 -21.911,-25.43 -12.074,-0.22 -21.339,9.56 -21.418,22.62" /><path
         id="path44"
         style="fill:#231f20;fill-opacity:1;fill-rule:nonzero;stroke:none"
         d="m 835.785,3199.56 c 0.172,13.18 9.125,22.84 21.031,22.66 12.758,-0.18 24.09,-10.38 24.223,-21.8 0.156,-13.21 -11.754,-24.51 -25.648,-24.34 -12.485,0.15 -19.789,8.9 -19.606,23.48" /><path
         id="path46"
         style="fill:#231f20;fill-opacity:1;fill-rule:nonzero;stroke:none"
         d="m 763.293,3209.79 c 13.484,0.43 21.082,-5.67 21.543,-17.3 0.602,-15.19 -9.023,-26.68 -22.773,-27.2 -12.336,-0.46 -21.473,8.81 -21.797,22.12 -0.379,15.26 6.394,21.84 23.027,22.38" /><path
         id="path48"
         style="fill:#231f20;fill-opacity:1;fill-rule:nonzero;stroke:none"
         d="m 760.922,3238.39 c -12.199,-0.02 -20.508,8.65 -20.652,21.57 -0.149,13.28 7.718,21.66 20.289,21.58 13.699,-0.08 22.222,-7.66 22.324,-19.85 0.109,-13.67 -8.938,-23.27 -21.961,-23.3" /><path
         id="path50"
         style="fill:#231f20;fill-opacity:1;fill-rule:nonzero;stroke:none"
         d="m 824.395,3359.48 c -0.196,13.63 6.597,21.76 18.394,22.02 14.074,0.31 23.34,-8.15 23.535,-21.49 0.168,-11.56 -8.648,-20.81 -20.254,-21.24 -12.14,-0.45 -21.5,8.49 -21.675,20.71" /><path
         id="path52"
         style="fill:#231f20;fill-opacity:1;fill-rule:nonzero;stroke:none"
         d="m 740.465,3351.17 c -0.211,12.93 7.469,21.96 18.723,22.03 13.484,0.07 21.464,-7.99 21.609,-21.83 0.137,-13.31 -6.973,-21.83 -18.477,-22.14 -12.422,-0.34 -21.652,8.92 -21.855,21.94" /><path
         id="path54"
         style="fill:#231f20;fill-opacity:1;fill-rule:nonzero;stroke:none"
         d="m 874.258,3274.67 c -0.188,-12.65 -8.297,-20.71 -20.367,-20.25 -11.95,0.47 -20.317,9.13 -20.278,21 0.043,11.97 8.903,21.87 19.535,21.85 12.59,-0.03 21.305,-9.36 21.11,-22.6" /><path
         id="path56"
         style="fill:#231f20;fill-opacity:1;fill-rule:nonzero;stroke:none"
         d="m 917.184,3460.83 c 12.519,-0.42 19.824,-7.66 19.664,-19.48 -0.176,-12.95 -8.59,-21.27 -21.258,-21.02 -12.461,0.25 -20.723,8.73 -20.11,20.67 0.704,13.74 7.875,20.29 21.704,19.83" /><path
         id="path58"
         style="fill:#231f20;fill-opacity:1;fill-rule:nonzero;stroke:none"
         d="m 860.195,3433.53 c -0.09,-12.57 -8.91,-22.57 -19.984,-22.64 -10.754,-0.08 -20.172,9.78 -20.215,21.17 -0.051,11.62 8.969,22.49 18.867,22.72 11.508,0.26 21.41,-9.6 21.332,-21.25" /><path
         id="path60"
         style="fill:#231f20;fill-opacity:1;fill-rule:nonzero;stroke:none"
         d="m 903.52,3363.99 c 0.031,12.41 6.07,20.28 15.757,20.53 12.719,0.33 22.067,-8.96 22.067,-21.94 0.004,-11.74 -7.145,-19.21 -18.449,-19.27 -12.805,-0.07 -19.403,6.97 -19.375,20.68" /><path
         id="path62"
         style="fill:#231f20;fill-opacity:1;fill-rule:nonzero;stroke:none"
         d="m 929.473,3261.09 c -12.278,0.05 -21.192,8.47 -21.075,19.92 0.11,10.93 6.918,19.02 16.098,19.14 13.336,0.17 24.043,-8.79 24.082,-20.15 0.035,-11.06 -7.933,-18.95 -19.105,-18.91" /><path
         id="path64"
         style="fill:#f36648;fill-opacity:1;fill-rule:nonzero;stroke:none"
         d="m 4409.44,2401.58 c -4.93,-12.94 -10.12,-25.83 -15.69,-38.66 -22.23,-51.26 -50.07,-99.48 -90.98,-138.32 -15.54,-14.75 -33.63,-28.02 -52.75,-37.56 -39.18,-19.56 -75.49,-9.05 -101.69,26.18 -23.13,31.11 -33.8,67.2 -39.36,104.72 -4.14,27.98 -5.55,56.37 -7.35,75.68 0.21,6.12 0.53,12.15 0.83,18.2 -73.91,2.46 -147.93,5.44 -222.04,8.79 -0.3,-7.28 -0.65,-14.54 -0.82,-21.88 1.79,-22.57 3.05,-55.24 7.19,-87.55 10.3,-80.34 33.87,-156.28 80.62,-223.49 40.32,-57.99 92.47,-100.5 162.31,-117.71 76.26,-18.8 147.25,-2.19 214.14,35.45 80.88,45.52 142.09,111.64 190.51,189.57 40.99,65.99 72.17,134.47 93.72,205.33 -72.68,-1.96 -145.82,-0.9 -218.64,1.25" /><path
         id="path66"
         style="fill:#f9b2d8;fill-opacity:1;fill-rule:nonzero;stroke:none"
         d="m 4206.77,2770.29 c 20.91,33.94 45.79,64.79 78.81,87.98 8.83,6.21 18.38,11.77 28.31,16 38.11,16.25 71.96,7.31 97.33,-25.51 25.24,-32.66 36.48,-71.04 41.94,-110.99 15.97,-116.79 -2.6,-228.38 -43.72,-336.19 72.82,-2.15 145.96,-3.21 218.64,-1.25 30.27,99.62 41.34,203.95 32.54,312.91 -6.3,77.8 -25.93,152.32 -65.26,220.52 -34.17,59.29 -79.11,107.74 -143.65,134.47 -76.63,31.74 -152.14,24.15 -225.76,-10.23 -79.53,-37.14 -140.99,-95.91 -191.37,-166.44 -98.97,-138.56 -146.87,-293.8 -154.17,-470.95 74.11,-3.35 148.13,-6.33 222.04,-8.79 6.74,132.86 37.96,250.73 104.32,358.47" /><path
         id="path68"
         style="fill:#f36648;fill-opacity:1;fill-rule:nonzero;stroke:none"
         d="m 1599.65,2471.22 c -8.44,-143.96 -13.26,-288.01 -12.33,-432.23 0.14,-20.26 16.29,-40.07 36.35,-39.5 46.9,1.36 93.76,4.62 140.58,7.97 11.74,0.84 18.42,9.42 19.49,21.33 0.97,10.83 1.79,21.7 2.05,32.56 3.68,149.9 7.25,299.79 10.84,449.69 -65.64,-0.46 -131.22,-1.56 -196.74,-3.35 0.35,-12.19 0.47,-24.35 -0.24,-36.47" /><path
         id="path70"
         style="fill:#f9b2d8;fill-opacity:1;fill-rule:nonzero;stroke:none"
         d="m 1798.64,2514.69 c 0,31.47 -0.84,62.96 0.15,94.4 3.53,111.83 11.8,223.55 7.85,335.54 -0.71,20.16 -1.99,40.37 -4.35,60.39 -3.81,32.21 -13.33,42.53 -45.58,42.09 -39.08,-0.54 -78.17,-4.22 -117.14,-7.82 -23.25,-2.15 -37.19,-17.11 -42,-39.32 -6.49,-29.96 -12.01,-60.13 -17.26,-90.33 -8.78,-50.49 -16.91,-101.1 -25.76,-151.58 -0.58,-3.3 -5.17,-8.6 -7.65,-8.46 -45.7,2.53 -91.37,5.69 -137.04,8.86 -9.08,0.64 -13.8,5.91 -14.65,15.03 -1.83,19.72 -4.56,39.37 -5.71,59.12 -3.44,59.35 -5.99,118.74 -9.66,178.07 -0.67,10.99 -3.63,22.28 -7.86,32.46 -4.39,10.59 -12.98,17.33 -25.98,14.98 -28.59,-5.18 -57.28,-9.83 -85.8,-15.39 -23.32,-4.55 -36.24,-19.22 -39.44,-42.91 -9.12,-67.72 -19.84,-135.26 -27.4,-203.15 -7.52,-67.55 -13.13,-135.36 -17.52,-203.18 -2.34,-36.25 -4.62,-72.5 -6.86,-108.76 66.87,5.45 133.85,9.93 200.91,13.59 0.74,7.03 1.52,14.06 2.25,21.09 1.19,11.53 6.25,16.23 17.08,17.51 65.16,7.7 130.31,15.44 195.39,23.69 10.95,1.39 13.81,-3.49 13.98,-12.57 0.25,-13.44 0.92,-26.91 1.3,-40.35 65.52,1.79 131.1,2.89 196.74,3.35 0.04,1.22 0.06,2.43 0.09,3.65 0.64,0 1.28,0 1.92,0" /><path
         id="path72"
         style="fill:#f36648;fill-opacity:1;fill-rule:nonzero;stroke:none"
         d="m 1153.47,2204.89 c -2.66,-56.21 -1.79,-112.66 -0.25,-168.95 1,-36.47 19.91,-51.16 56.65,-47.7 24.73,2.34 49.3,6.33 73.96,9.47 25.01,3.19 30.07,6.39 33.05,30.8 10.68,87.5 20.53,175.1 30.4,262.7 7.78,69.01 15.36,138.05 22.61,207.11 -67.06,-3.66 -134.04,-8.14 -200.91,-13.59 -5.75,-93.26 -11.08,-186.53 -15.51,-279.84" /><path
         id="path74"
         style="fill:#f9b2d8;fill-opacity:1;fill-rule:nonzero;stroke:none"
         d="m 3473.84,2622.96 c 13.73,41.7 33.77,80.22 64.31,112.35 39.88,41.94 86.18,72.32 145.53,78.19 24.36,2.41 48.73,4.61 73.06,7.23 13.03,1.41 22.22,8.8 27.87,20.41 3.21,6.61 6.74,13.33 8.42,20.4 12.08,50.97 23.77,102.04 35.45,153.11 2.41,10.51 0.43,19.29 -10.8,23.9 -8.88,3.66 -17.29,9.68 -26.47,11.17 -90.69,14.71 -178.17,5.19 -260.16,-38.47 -94.42,-50.28 -161.71,-126.98 -211.31,-220.4 -55.59,-104.7 -83.99,-216.71 -90.37,-334.4 70.39,-4.24 140.74,-8.47 211.03,-12.58 4.22,60.9 14.25,120.85 33.44,179.09" /><path
         id="path76"
         style="fill:#f9b2d8;fill-opacity:1;fill-rule:nonzero;stroke:none"
         d="m 3842.09,2543.42 c 1.12,17.6 -7.26,26.34 -24.23,30.63 -4.51,1.14 -9.11,2.29 -13.72,2.61 -49.21,3.35 -98.42,6.54 -146.84,9.72 -37.04,0 -73.17,0.25 -109.3,-0.11 -17.82,-0.17 -25.36,-6.64 -28.94,-24.14 -6.87,-33.77 -7.8,-67.96 -4.73,-102.13 0.78,-8.73 2.69,-15.51 5.9,-20.75 101.94,-5.81 203.73,-11.28 305.37,-16.12 2.51,13.9 4.98,27.81 7.43,41.71 4.58,25.93 7.38,52.29 9.06,78.58" /><path
         id="path78"
         style="fill:#f36648;fill-opacity:1;fill-rule:nonzero;stroke:none"
         d="m 3551.04,2424.52 c 24.78,-1.85 49.64,-2.98 74.49,-3.65 9.09,-0.25 11.97,-3.22 11.66,-12.34 -1.39,-40.81 -9.05,-80.24 -25.29,-117.73 -4.43,-10.24 -10.2,-20.16 -16.76,-29.2 -19.18,-26.4 -47.49,-32.5 -75.8,-16.26 -30.69,17.62 -53.42,42.24 -64.44,76.61 -10.49,32.79 -17.42,66.15 -15.78,100.76 0.33,7.07 0.79,14.12 1.28,21.16 -70.29,4.11 -140.64,8.34 -211.03,12.58 -0.16,-2.81 -0.36,-5.59 -0.48,-8.39 -3.52,-77.68 1.79,-154.8 23.71,-229.7 22.27,-76.18 61.06,-141.41 130.06,-185.62 105.78,-67.76 231.38,-49.8 313.21,45.06 40.59,47.07 66.64,101.63 85.91,160.03 19.98,60.56 32.52,122.8 43.82,185.3 -101.64,4.84 -203.43,10.31 -305.37,16.12 5.65,-9.19 15.4,-13.57 30.81,-14.73" /><path
         id="path80"
         style="fill:#f36648;fill-opacity:1;fill-rule:nonzero;stroke:none"
         d="m 380.09,2353.1 c 0.453,-84.44 4.68,-154.66 29.988,-220.74 54.75,-142.91 153.336,-233.77 310.981,-247.16 84.289,-7.17 160.929,16.82 223.535,74.37 70.366,64.68 107.326,149.07 130.256,240.21 3.77,14.98 -0.48,24.64 -14.93,30.12 -26.78,10.16 -54.08,19.19 -81.654,26.92 -15.567,4.36 -30.985,-5.22 -39.336,-19.36 -10.453,-17.71 -20.602,-35.76 -32.785,-52.25 -31.731,-42.97 -68.532,-80.52 -118.84,-101.97 -45.297,-19.3 -88.707,-16.38 -129.219,12.65 -35.875,25.71 -60.707,59.65 -73.645,102.03 -12.699,41.62 -16.769,84.48 -17.894,127.7 -0.719,27.53 0.566,54.78 3.144,81.83 -63.093,-11.42 -126.062,-23.96 -188.894,-37.68 -0.25,-5.57 -0.52,-11.15 -0.707,-16.67" /><path
         id="path82"
         style="fill:#f9b2d8;fill-opacity:1;fill-rule:nonzero;stroke:none"
         d="m 701.152,2809.93 c 27.731,42.06 60.852,78.63 107.317,100.93 34.558,16.59 69.976,27.62 109.094,20.3 30.73,-5.76 49.742,-23.6 58.261,-53.32 6.774,-23.64 6.071,-47.69 3.629,-71.73 -1.488,-14.65 -4.867,-29.14 -5.957,-43.8 -1.031,-13.89 9.215,-25.21 20.914,-24.27 34.46,2.75 68.88,5.92 103.31,8.84 12.37,1.05 20.27,7.46 23.08,19.46 2.47,10.57 4.79,21.22 6.3,31.96 14.9,105.54 -37.93,193.18 -138.022,228.68 -57.363,20.35 -116.305,22.1 -176.008,13.85 -66.297,-9.15 -128.629,-29.23 -184.308,-67.27 -71.328,-48.73 -121.414,-115.02 -156.953,-192.8 -61.536,-134.66 -85.028,-277.27 -91.012,-410.99 62.832,13.72 125.801,26.26 188.894,37.68 5.719,60.05 18.5,119.08 34.844,177.69 22.137,79.4 51.035,155.66 96.617,224.79" /><path
         id="path84"
         style="fill:#f36648;fill-opacity:1;fill-rule:nonzero;stroke:none"
         d="m 2667.38,2155.39 c -4.13,-24.07 -7.74,-48.4 -9.1,-72.74 -1.6,-28.65 10.57,-42.74 38.77,-47.19 16.04,-2.54 32.43,-2.83 45.15,-3.85 23.01,1.49 42.42,2.48 61.77,4.06 17.5,1.42 22.93,6.31 26.93,23.47 10.03,43.1 19.51,86.33 29.97,129.33 12.46,51.28 25.87,102.33 38.52,153.57 3.39,13.71 10.61,21.66 25.3,22.75 25.15,1.85 50.31,3.94 75.38,6.74 10.69,1.2 15.51,-2.28 17.2,-12.86 7.34,-45.99 15.35,-91.87 22.69,-137.87 7.46,-46.79 14.66,-93.64 31.09,-138.37 13.45,-36.59 31.33,-47.88 70.27,-44.13 20.87,2 41.64,5.06 62.39,8.07 15.11,2.18 20.3,7.63 21.84,22.53 0.59,5.74 0.55,11.71 -0.27,17.41 -7.48,51.88 -14.93,103.77 -22.89,155.57 -11.19,72.79 -24.06,145.36 -34.32,218.26 -145.48,8.75 -291.11,17.4 -436.76,25.05 -24.26,-109.32 -44.99,-219.39 -63.93,-329.8" /><path
         id="path86"
         style="fill:#f9b2d8;fill-opacity:1;fill-rule:nonzero;stroke:none"
         d="m 2994.78,2608.99 c -19.19,-2.74 -38.32,-6.04 -57.41,-9.41 -9.99,-1.77 -13.65,1.68 -11.86,11.81 7.67,43.54 15.12,87.12 22.7,130.68 1.5,8.6 3.25,17.16 5.42,28.64 13.66,-39.67 26.4,-76.1 38.66,-112.7 4.06,-12.1 6.95,-24.59 10.22,-36.94 1.77,-6.67 0.34,-10.93 -7.73,-12.08 z m 117.73,335.37 c -2.89,26.23 -3.23,52.76 -6.72,78.89 -4.03,30.29 -15.16,38.47 -45.5,36.25 -49.75,-3.64 -98.09,-14.66 -146.29,-27.22 -23.43,-6.12 -38.63,-18.74 -46.56,-40.88 -8.76,-24.47 -18.63,-48.68 -25.42,-73.7 -27.02,-99.62 -53.86,-199.3 -79.21,-299.35 -11.21,-44.24 -21.62,-88.65 -31.5,-133.16 145.65,-7.65 291.28,-16.3 436.76,-25.05 -1.92,13.58 -3.92,27.15 -5.61,40.76 -18.33,147.62 -33.66,295.6 -49.95,443.46" /><path
         id="path88"
         style="fill:#f36648;fill-opacity:1;fill-rule:nonzero;stroke:none"
         d="m 2127.64,2388.62 c 2.89,-22.97 5.01,-60.79 12.76,-97.43 18.38,-86.85 60.41,-160.05 133.25,-213.34 79.26,-58 181.84,-60.49 263,-5.69 49.09,33.14 80.86,80.96 107.25,132.66 16.34,32.03 14.76,41.57 -13.48,63.52 -25.72,20 -53,38.01 -79.63,56.84 -27.08,19.15 -32.35,17.71 -46.28,-12.41 -24.09,-52.14 -87.39,-67.37 -131.9,-31.24 -28.56,23.2 -45.48,54.11 -52.76,89.64 -9.26,45.21 -12.05,89.33 -9.03,132.43 -58.17,1.92 -116.31,3.5 -174.44,4.75 -4.04,-38.51 -6.74,-78.28 -8.74,-119.73" /><path
         id="path90"
         style="fill:#f9b2d8;fill-opacity:1;fill-rule:nonzero;stroke:none"
         d="m 2518.87,2831.53 c 35.19,8.76 71.09,6.83 106.54,1.03 30.75,-5.03 36.53,-3.37 43.98,31.06 10.42,48.18 19.93,96.55 30.57,144.68 5.06,22.84 3.21,27.57 -19.1,34.9 -3.3,1.08 -6.71,1.96 -10.14,2.56 -39.34,6.92 -78.83,7.31 -118.37,2.03 -86.92,-11.59 -164.64,-43.85 -230,-103.37 -62.77,-57.15 -106.71,-126.95 -135.89,-206.15 -27.01,-73.27 -41.56,-148.75 -50.08,-229.92 58.13,-1.25 116.27,-2.83 174.44,-4.75 5.49,78.34 30.48,153.27 72.67,224.79 30.75,52.12 75.68,88.3 135.38,103.14" /><path
         id="path92"
         style="fill:#f36648;fill-opacity:1;fill-rule:nonzero;stroke:none"
         d="m 1850.05,2179.31 c -2.59,-38.3 -2.05,-76.89 -1.55,-115.33 0.3,-23.45 11.73,-34.44 34.87,-37.44 4.61,-0.59 9.33,-0.95 13.95,-0.68 39.93,2.3 79.89,4.34 119.76,7.4 20.22,1.55 27.4,8.37 30.13,28.99 5.15,38.86 10.03,77.82 13.41,116.87 9.52,110.03 18.75,220.09 27.52,330.17 -71.05,1.28 -142.05,1.98 -212.99,2 -8.95,-110.62 -17.59,-221.26 -25.1,-331.98" /><path
         id="path94"
         style="fill:#f9b2d8;fill-opacity:1;fill-rule:nonzero;stroke:none"
         d="m 2110.93,2824 c 0,79.19 0.13,132.81 -0.06,186.42 -0.07,21.29 -1.08,22.19 -21.06,28.65 -1.06,0.34 -1.88,1.47 -2.93,1.74 -7.58,1.96 -15.5,6.19 -22.75,5.27 -35.4,-4.49 -70.72,-9.84 -105.88,-15.95 -20.72,-3.59 -29.72,-13.55 -32.64,-35.42 -9,-67.36 -18.79,-134.65 -25.69,-202.22 -9.47,-92.73 -17.04,-185.65 -24.56,-278.56 -0.08,-0.88 -0.14,-1.76 -0.21,-2.64 70.94,-0.02 141.94,-0.72 212.99,-2 1.35,16.91 2.78,33.82 4.11,50.72 7.53,96.42 13.69,192.93 18.68,263.99" /><path
         id="path96"
         style="fill:#f36648;fill-opacity:1;fill-rule:nonzero;stroke:none"
         d="m 1294.42,1607.84 c 6.5,6.07 13.12,12.02 19.48,18.25 9.11,8.91 10.47,18.1 3.85,24.25 -6.28,5.83 -15.14,4.4 -23.56,-3.89 -6.48,-6.39 -12.91,-12.85 -19.33,-19.26 -6.75,6.19 -11.99,11.39 -17.66,16.1 -6.89,5.73 -14.76,8.61 -21.61,0.68 -6.65,-7.71 -3.48,-15.13 3.28,-21.44 5.25,-4.91 10.48,-9.84 13.84,-13.01 -19.6,-20.12 -37.92,-38.93 -56.29,-57.79 -8.86,8.04 -18.01,16.43 -27.27,24.71 -6.89,6.14 -14.68,8.46 -21.65,1.04 -7.13,-7.58 -3.46,-15.11 2.75,-21.53 3.23,-3.34 7.05,-6.11 10.34,-9.4 5.39,-5.38 10.55,-10.96 14.37,-14.96 -22.64,-23.34 -45,-46.39 -70.02,-72.21 -8.95,10.03 -17.46,20.09 -26.58,29.57 -5.43,5.63 -12.5,6.99 -18.89,1.67 -6.84,-5.7 -6.33,-13.07 -1.65,-19.86 2.83,-4.11 6.62,-7.61 10.27,-11.07 6.37,-6.07 12.96,-11.91 17.07,-15.65 -20.08,-20.74 -38.55,-39.83 -57.3,-59.2 -6.64,7.3 -13.51,15.21 -20.78,22.72 -7.842,8.09 -16.545,9.23 -22.408,2.86 -7.074,-7.69 -3.996,-14.91 1.969,-21.68 7.402,-8.4 14.779,-16.82 23.389,-26.63 -6.81,-6.13 -13.061,-11.39 -18.885,-17.08 -9.176,-8.95 -18.274,-18 -27.004,-27.38 -5.629,-6.05 -7.184,-13.38 -1.09,-19.88 6.64,-7.09 13.984,-5.04 20.672,0.62 2.664,2.24 5.16,4.73 7.55,7.26 11.167,11.86 22.267,23.77 34.297,36.64 8.54,-11.71 15.09,-21.3 22.32,-30.36 3.27,-4.11 7.37,-8.81 12.01,-10.17 3.85,-1.14 11.57,0.92 13.03,3.84 2.36,4.7 3.22,12.59 0.76,16.82 -7.74,13.26 -17.33,25.45 -24.45,35.56 20.34,21.06 39.87,41.28 59.87,61.98 5.77,-6.67 11.61,-13.39 17.42,-20.14 6.14,-7.11 13.4,-12.01 22.04,-5.06 8.63,6.93 5.71,15.08 -0.31,22.48 -6.55,8.02 -13.18,15.98 -17.91,21.72 23.13,23.3 45.42,45.75 68.85,69.34 9.32,-14.06 19.11,-28.91 28.98,-43.68 3.45,-5.15 6.1,-11.81 10.96,-14.74 4.69,-2.84 13.65,-4.35 17.22,-1.71 3.66,2.72 3.42,11.15 4.08,17.16 0.2,1.81 -2.22,3.94 -3.5,5.89 -12.86,19.71 -25.74,39.4 -37.74,57.75 18.25,18.57 36.45,37.08 55.44,56.41 5.41,-7.65 11.29,-15.29 16.45,-23.39 6.47,-10.14 12.06,-20.84 18.59,-30.94 4.34,-6.72 11.95,-9.67 17.95,-4.58 3.96,3.37 5.27,11.05 5.7,16.95 0.26,3.68 -3,7.85 -5.25,11.44 -10.7,17.07 -21.58,34.02 -33.66,52.98 z M 954.469,1131.63 c -37.184,-0.16 -94.84,9.97 -148.063,38.94 -13.265,7.22 -26.609,14.68 -38.476,23.89 -4.219,3.27 -6.539,12.4 -5.703,18.27 7.992,56.21 20.418,111.49 38.461,165.35 27.972,83.47 64.457,162.62 124.546,228.46 99.546,109.08 221.366,178.9 367.266,205.34 57.72,10.46 115.71,13.09 173.91,4.57 25.82,-3.79 32.35,-10.34 34.95,-35.23 11.22,-107.57 -3.8,-211.66 -44.9,-311.47 -48.37,-117.45 -125.88,-211 -235.94,-275.57 -68.32,-40.09 -166.29,-63.96 -266.051,-62.55" /><path
         id="path98"
         style="fill:#ffffff;fill-opacity:1;fill-rule:nonzero;stroke:none"
         d="m 1294.42,1607.84 c 12.08,-18.96 22.96,-35.91 33.66,-52.98 2.25,-3.59 5.51,-7.76 5.25,-11.44 -0.43,-5.9 -1.74,-13.58 -5.7,-16.95 -6,-5.09 -13.61,-2.14 -17.95,4.58 -6.53,10.1 -12.12,20.8 -18.59,30.94 -5.16,8.1 -11.04,15.74 -16.45,23.39 -18.99,-19.33 -37.19,-37.84 -55.44,-56.41 12,-18.35 24.88,-38.04 37.74,-57.75 1.28,-1.95 3.7,-4.08 3.5,-5.89 -0.66,-6.01 -0.42,-14.44 -4.08,-17.16 -3.57,-2.64 -12.53,-1.13 -17.22,1.71 -4.86,2.93 -7.51,9.59 -10.96,14.74 -9.87,14.77 -19.66,29.62 -28.98,43.68 -23.43,-23.59 -45.72,-46.04 -68.85,-69.34 4.73,-5.74 11.36,-13.7 17.91,-21.72 6.02,-7.4 8.94,-15.55 0.31,-22.48 -8.64,-6.95 -15.9,-2.05 -22.04,5.06 -5.81,6.75 -11.65,13.47 -17.42,20.14 -20,-20.7 -39.53,-40.92 -59.87,-61.98 7.12,-10.11 16.71,-22.3 24.45,-35.56 2.46,-4.23 1.6,-12.12 -0.76,-16.82 -1.46,-2.92 -9.18,-4.98 -13.03,-3.84 -4.64,1.36 -8.74,6.06 -12.01,10.17 -7.23,9.06 -13.78,18.65 -22.32,30.36 -12.03,-12.87 -23.13,-24.78 -34.297,-36.64 -2.39,-2.53 -4.886,-5.02 -7.55,-7.26 -6.688,-5.66 -14.032,-7.71 -20.672,-0.62 -6.094,6.5 -4.539,13.83 1.09,19.88 8.73,9.38 17.828,18.43 27.004,27.38 5.824,5.69 12.075,10.95 18.885,17.08 -8.61,9.81 -15.987,18.23 -23.389,26.63 -5.965,6.77 -9.043,13.99 -1.969,21.68 5.863,6.37 14.566,5.23 22.408,-2.86 7.27,-7.51 14.14,-15.42 20.78,-22.72 18.75,19.37 37.22,38.46 57.3,59.2 -4.11,3.74 -10.7,9.58 -17.07,15.65 -3.65,3.46 -7.44,6.96 -10.27,11.07 -4.68,6.79 -5.19,14.16 1.65,19.86 6.39,5.32 13.46,3.96 18.89,-1.67 9.12,-9.48 17.63,-19.54 26.58,-29.57 25.02,25.82 47.38,48.87 70.02,72.21 -3.82,4 -8.98,9.58 -14.37,14.96 -3.29,3.29 -7.11,6.06 -10.34,9.4 -6.21,6.42 -9.88,13.95 -2.75,21.53 6.97,7.42 14.76,5.1 21.65,-1.04 9.26,-8.28 18.41,-16.67 27.27,-24.71 18.37,18.86 36.69,37.67 56.29,57.79 -3.36,3.17 -8.59,8.1 -13.84,13.01 -6.76,6.31 -9.93,13.73 -3.28,21.44 6.85,7.93 14.72,5.05 21.61,-0.68 5.67,-4.71 10.91,-9.91 17.66,-16.1 6.42,6.41 12.85,12.87 19.33,19.26 8.42,8.29 17.28,9.72 23.56,3.89 6.62,-6.15 5.26,-15.34 -3.85,-24.25 -6.36,-6.23 -12.98,-12.18 -19.48,-18.25" /><path
         id="path100"
         style="fill:#231f20;fill-opacity:1;fill-rule:nonzero;stroke:none"
         d="m 3272.83,3920.67 c -3.98,31.28 -19.2,45.07 -46.41,42.76 6.65,-23.48 21.95,-37.26 46.41,-42.76 z m -794.21,-227.24 c 2.02,-7.72 3.14,-14.24 5.43,-20.31 5.51,-14.57 20.54,-21.51 35.97,-17.17 11.07,3.11 20.02,18.65 18.75,31.52 -0.8,8.15 -4.46,11.74 -12.74,10.83 -15.29,-1.69 -30.59,-3.15 -47.41,-4.87 z m 494.12,237.86 c -6.28,30.17 -12.11,58.89 -18.31,87.54 -1.86,8.64 -7.99,13.05 -16.79,13.37 -34.88,1.31 -68.26,-6.95 -102.28,-14.96 9.78,-37.62 19.26,-74.13 29.02,-111.7 36.07,8.57 71,16.87 108.36,25.75 z m -124.91,-28.17 c -8.76,33.54 -16.74,64.7 -25.15,95.75 -1.61,5.9 -2.76,14.57 -12.18,12 -32.15,-8.78 -64.13,-18.16 -96.18,-27.33 -7.62,-2.17 -11.15,-7.28 -12.19,-15.14 -3.01,-22.72 3.34,-43.73 10.8,-64.64 3.9,-10.89 11.65,-16.48 23.04,-15.7 15.82,1.08 31.67,2.48 47.37,4.65 20.99,2.92 41.85,6.71 64.49,10.41 z m 202.16,59.24 c 31.03,4.38 60.83,9.17 90.78,12.64 30.44,3.52 60.97,6.57 91.55,8.29 30.6,1.72 52.39,-15.26 62.66,-41.64 13.8,-35.43 21.44,-72.94 16.53,-111.73 -1.36,-10.85 -6.87,-18.7 -17.5,-20.7 -60.92,-11.49 -121.24,-27.81 -184.22,-23.76 -9.35,0.6 -16.41,3.66 -21.78,11.16 -2.48,3.47 -5.18,6.79 -7.81,10.15 -28.32,36.18 -73.72,36.51 -103.13,0.82 -14.75,-17.9 -21.62,-39.38 -27.07,-61.25 -3.12,-12.52 -10.44,-17.78 -22.56,-19.68 -55.97,-8.79 -111.86,-18 -167.78,-27.08 -16.83,-2.73 -19.31,-1.47 -27.43,14.1 -2.87,5.5 -5.6,11.1 -8.79,16.41 -23.83,39.66 -70.34,26.23 -87.28,2.74 -13.32,-18.48 -17.77,-39.5 -19.13,-61.37 -0.64,-10.44 -5.06,-15.3 -15.01,-17.18 -24.39,-4.61 -48.7,-9.67 -73.02,-14.69 -45.02,-9.28 -63.86,18.4 -66.35,54.77 -1.41,20.7 -3.9,41.34 -5.94,62.01 -1.1,11.19 -2.77,22.35 -3.32,33.56 -0.96,19.74 6.55,35.42 25.62,42.74 24.95,9.59 50.41,17.85 75.65,26.71 20.85,7.32 41.66,14.79 62.57,21.97 8.23,2.82 11.41,8.18 10.88,16.75 -1.52,24.01 -2.9,48.03 -3.9,72.06 -0.54,12.76 -0.7,25.59 -0.15,38.35 0.97,22.31 13.01,36.98 33.67,44.22 32.92,11.53 65.81,23.25 99.14,33.51 59.69,18.37 119.49,36.81 181.72,44.78 16.02,2.05 32.47,2.19 48.63,1.34 18.11,-0.97 27.72,-13.56 34.06,-29.35 13.71,-34.18 20.32,-69.93 24.32,-106.33 1.25,-11.46 2.92,-22.89 4.39,-34.32" /><path
         id="path102"
         style="fill:#231f20;fill-opacity:1;fill-rule:nonzero;stroke:none"
         d="m 1975.39,3177.19 c -2.91,2 -6.72,3.22 -7.37,5.39 -0.98,3.26 -1.07,8.24 0.82,10.61 4.03,5.08 9.39,9.18 14.52,13.29 133.39,106.6 282.32,184.47 443.31,240.21 110.63,38.31 223.8,67.15 338.26,91.03 112.11,23.39 224.56,45.42 333.4,81.85 85.92,28.74 169.77,62.07 246.68,111.36 64.86,41.58 117.61,94.96 162.43,156.92 7.97,11.02 16.15,21.88 24.41,32.68 2.32,3.06 4.77,6.82 8.03,8.15 3.4,1.38 9.9,1.75 11.32,-0.18 2.11,-2.85 2.76,-9.36 0.87,-12.19 -74.97,-111.76 -170.5,-199.48 -294.53,-255.08 -118.29,-53.02 -241.62,-89.56 -368.04,-116.24 -125,-26.38 -250.31,-51.34 -372.68,-88.64 -140.95,-42.98 -276.85,-97.86 -401.15,-178.02 -45.28,-29.2 -87.54,-63.11 -131.19,-94.86 -2.74,-2 -5.57,-3.86 -9.09,-6.28" /><path
         id="path104"
         style="fill:#231f20;fill-opacity:1;fill-rule:nonzero;stroke:none"
         d="m 2432.08,3721.15 c 2.35,-2.23 7.02,-5.02 8.71,-9.07 0.72,-1.73 -4.25,-8.09 -7.5,-8.91 -78.82,-19.99 -152.23,-53.54 -224.18,-90.28 -155.9,-79.6 -292.6,-184.47 -409.54,-314.89 -0.26,-0.29 -0.52,-0.58 -0.79,-0.86 -5.03,-5.21 -10.14,-13.3 -18.02,-5.78 -6.91,6.59 -0.69,12.64 4.04,17.93 52.66,58.91 109.71,113.21 171.48,162.49 122.39,97.64 257.13,173.5 403.79,228.16 19.6,7.3 39.89,12.75 59.9,18.93 2.94,0.91 6.07,1.17 12.11,2.28" /><path
         id="path106"
         style="fill:#231f20;fill-opacity:1;fill-rule:nonzero;stroke:none"
         d="m 2976.97,3731.17 c 0.85,27.81 7.73,47.95 24.97,63.43 22.76,20.43 52.46,13.77 65.05,-14.25 12.16,-27.08 5.51,-64.55 -15.21,-85.82 -23.59,-24.19 -55.58,-18.74 -68.73,12.33 -3.85,9.08 -4.9,19.35 -6.08,24.31" /><path
         id="path108"
         style="fill:#231f20;fill-opacity:1;fill-rule:nonzero;stroke:none"
         d="m 2728.44,3672.36 c 0.68,-19.6 -5.16,-36.81 -19.82,-50.24 -18.87,-17.29 -44.81,-14.49 -59.95,6.1 -18.82,25.59 -14.71,67.16 8.78,88.53 11.58,10.53 25.53,14.66 39.92,9.08 18.95,-7.33 28.5,-23.05 31.01,-42.99 0.43,-3.44 0.06,-6.98 0.06,-10.48" /><path
         id="path110"
         style="fill:#231f20;fill-opacity:1;fill-rule:nonzero;stroke:none"
         d="m 3321.18,3899.79 c -2.44,2.58 -7.53,5.79 -7.12,7.98 0.77,4.17 3.87,9.59 7.47,11.21 9.46,4.27 20.08,5.93 29.57,10.14 42.99,19.12 83.28,42.91 120.68,71.53 3.69,2.83 7.3,5.76 11.02,8.55 5.1,3.82 11.62,6.34 14.91,-0.2 1.69,-3.4 -0.9,-11.03 -4.07,-14.35 -6.34,-6.66 -14.17,-12 -21.78,-17.32 -39.15,-27.35 -79.6,-52.43 -124.42,-69.62 -7.91,-3.03 -16.25,-4.94 -26.26,-7.92" /><path
         id="path112"
         style="fill:#ffffff;fill-opacity:1;fill-rule:nonzero;stroke:none"
         d="m 2847.83,3903.12 c -22.64,-3.7 -43.5,-7.49 -64.49,-10.41 -15.7,-2.17 -31.55,-3.57 -47.37,-4.65 -11.39,-0.78 -19.14,4.81 -23.04,15.7 -7.46,20.91 -13.81,41.92 -10.8,64.64 1.04,7.86 4.57,12.97 12.19,15.14 32.05,9.17 64.03,18.55 96.18,27.33 9.42,2.57 10.57,-6.1 12.18,-12 8.41,-31.05 16.39,-62.21 25.15,-95.75" /><path
         id="path114"
         style="fill:#ffffff;fill-opacity:1;fill-rule:nonzero;stroke:none"
         d="m 2972.74,3931.29 c -37.36,-8.88 -72.29,-17.18 -108.36,-25.75 -9.76,37.57 -19.24,74.08 -29.02,111.7 34.02,8.01 67.4,16.27 102.28,14.96 8.8,-0.32 14.93,-4.73 16.79,-13.37 6.2,-28.65 12.03,-57.37 18.31,-87.54" /><path
         id="path116"
         style="fill:#ffffff;fill-opacity:1;fill-rule:nonzero;stroke:none"
         d="m 2478.62,3693.43 c 16.82,1.72 32.12,3.18 47.41,4.87 8.28,0.91 11.94,-2.68 12.74,-10.83 1.27,-12.87 -7.68,-28.41 -18.75,-31.52 -15.43,-4.34 -30.46,2.6 -35.97,17.17 -2.29,6.07 -3.41,12.59 -5.43,20.31" /><path
         id="path118"
         style="fill:#ffffff;fill-opacity:1;fill-rule:nonzero;stroke:none"
         d="m 3272.83,3920.67 c -24.46,5.5 -39.76,19.28 -46.41,42.76 27.21,2.31 42.43,-11.48 46.41,-42.76" /><path
         id="path120"
         style="fill:#231f20;fill-opacity:1;fill-rule:nonzero;stroke:none"
         d="m 1239.21,850.68 c -62.87,-135.418 1.64,-293.95 132.55,-344.442 5.35,19.352 10.63,38.461 15.93,57.582 -12.77,5.082 -31.33,-0.3 -29.93,18.36 1.41,18.672 18.87,10.511 31.88,13.039 -2.04,18.492 -4.04,36.59 -6.05,54.679 -13.32,0.301 -28.98,-12.648 -34.24,5.383 -5.84,20 15.44,17.731 27.52,25.028 -6.13,16.261 -12.27,32.57 -18.88,50.121 -8.23,-5.821 -14.95,-9.789 -20.73,-14.828 -9.87,-8.641 -17.48,-9.711 -23.77,-2.27 -6.96,8.238 -4.72,17.898 6.15,25.387 7.59,5.23 15.37,10.172 24.49,16.16 -11.98,13.98 -23.14,27 -34.95,40.769 -7.12,-9.199 -12.35,-17.589 -19.26,-24.218 -3.57,-3.43 -10.26,-5.301 -15.3,-4.891 -3.24,0.281 -8.31,5.832 -8.5,9.25 -0.29,5.27 1.93,11.34 4.8,16.012 4.95,8.051 11.22,15.301 17.25,23.308 -16.8,12.2 -32.43,23.563 -48.96,35.571 z m 521.06,-172.86 c 57.65,143.782 -21.37,294.5 -145.39,335.16 -4.71,-12.33 -9.44,-24.71 -14.43,-37.789 11.26,-2.921 22.96,-4.441 21.2,-17.609 -2.25,-16.762 -17,-10.262 -28.45,-12.211 -1.87,-17.269 -3.73,-34.48 -5.49,-50.851 2.17,-1.438 2.77,-2.161 3.44,-2.239 8,-1.011 16.02,-2.332 17.09,-12.39 0.96,-8.961 -4.78,-12.961 -12.43,-15.879 -1.98,-0.75 -4.17,-5.762 -3.48,-7.922 4.32,-13.469 9.42,-26.711 14.37,-40.328 11.21,4.429 19.98,8.468 29.13,11.328 7.7,2.41 15.32,0.941 18.51,-7.469 3.33,-8.781 -0.94,-14.91 -9.23,-18.539 -6.94,-3.023 -13.83,-6.172 -22.83,-10.191 14.92,-17.102 28.53,-32.711 42.14,-48.321 16.3,14.489 25.6,16.391 33.18,7.719 6.52,-7.457 4.44,-13.269 -10.3,-27.098 9.36,-6.761 18.53,-13.402 28.23,-20.421 5.16,10.289 10.64,19.429 21.88,14.359 14.3,-6.457 6.88,-18.16 3.71,-28.981 6.27,-3.367 12.28,-6.617 19.15,-10.328 z m -508.39,198.321 c 17.84,-12.801 35.02,-25.129 52.08,-37.379 5.5,6.73 9.58,13 14.93,17.879 5.69,5.211 12.91,5.918 18.96,0.218 6.04,-5.687 5.5,-12.359 0.97,-18.949 -4.33,-6.289 -8.58,-12.629 -12.75,-18.762 14.15,-16.378 27.51,-31.839 40.71,-47.109 9.48,5.582 18.11,11.723 27.6,15.891 7.68,3.379 16.03,1.66 19.79,-6.899 3.75,-8.531 -0.16,-14.73 -8.39,-18.883 -6.56,-3.296 -12.92,-7.136 -18.82,-11.488 -2.22,-1.629 -4.73,-6.039 -3.99,-8.019 7.14,-19.082 14.94,-37.899 22.53,-56.762 8.79,1.402 17.15,3.441 25.58,3.891 8.54,0.441 15.6,-3.258 16.46,-12.821 0.88,-9.738 -5.52,-13.609 -14.18,-15.058 -7.47,-1.243 -14.89,-2.782 -22.11,-4.153 2.43,-22.789 4.66,-43.789 6.88,-64.656 20.07,-1.211 27.7,-4.852 27.16,-14.262 -1.2,-20.429 -19.05,-11.679 -28.83,-15.429 -6.07,-22.871 -11.96,-45.102 -17.83,-67.309 135.66,-43.672 292.99,32.789 349.83,155.879 -6.65,3.531 -13.32,7.078 -20.92,11.129 -3.12,-6.629 -5.69,-12.18 -8.35,-17.699 -3.65,-7.61 -9.63,-11.832 -17.88,-8.77 -8.84,3.27 -10.57,10.809 -7.81,19.231 1.68,5.14 4.92,9.847 6.02,15.07 0.66,3.18 -0.24,8.398 -2.46,10.18 -9.32,7.507 -19.39,14.078 -32.92,23.617 -5.91,-7.36 -11.6,-15.227 -18.13,-22.328 -7.05,-7.641 -19.78,-6.551 -21.9,2.449 -1.43,6.058 1.12,14.172 4.42,19.93 3.88,6.781 10.47,12.019 16.26,18.332 -4.92,5.207 -10.32,10.75 -15.52,16.468 -5.23,5.739 -10.15,11.77 -15.41,17.481 -6.77,7.347 -13.1,19.488 -20.8,20.488 -9.3,1.199 -19.85,-7.059 -29.82,-11.309 -1.41,-0.601 -2.77,-2.492 -3.93,-2.308 -5.95,0.887 -14.45,0.398 -17.02,3.988 -2.7,3.789 -1.55,12.75 1.28,17.399 2.89,4.742 9.65,7.421 15.13,10.171 7.16,3.579 14.74,6.352 21.62,9.239 -6.52,18.043 -12.67,35.082 -19.27,53.39 -6.14,-1.597 -12.81,-3.257 -19.45,-5.058 -8.41,-2.309 -16.04,-1.52 -19.21,7.691 -3.04,8.809 1.56,15.43 9.55,18.68 6.77,2.758 14.3,3.57 21.22,5.976 2.7,0.942 6.51,3.704 6.74,5.954 1.98,19.527 3.25,39.14 4.73,58.777 -9.85,4.07 -26.09,2.293 -23.6,18.543 3.02,19.75 20.4,8.617 31.05,10.879 5.27,14.41 10.3,28.189 15.34,41.949 -102.05,45.63 -289.65,-35.5 -335.54,-145.359 z m 555.68,-81.871 c -0.05,-161.52 -104.14,-292.391 -247.64,-327.989 -91.84,-22.781 -178.83,-10.859 -256.52,45.051 -103.98,74.828 -144.77,205.418 -99.38,327.879 47.92,129.277 143.5,203.339 280.37,219.239 102.55,11.9 190.12,-22.25 257.98,-101.009 44.56,-51.73 64.96,-113.199 65.19,-163.171" /><path
         id="path122"
         style="fill:#ffffff;fill-opacity:1;fill-rule:nonzero;stroke:none"
         d="m 1251.88,876.141 c 45.89,109.859 233.49,190.989 335.54,145.359 -5.04,-13.76 -10.07,-27.539 -15.34,-41.949 -10.65,-2.262 -28.03,8.871 -31.05,-10.879 -2.49,-16.25 13.75,-14.473 23.6,-18.543 -1.48,-19.637 -2.75,-39.25 -4.73,-58.777 -0.23,-2.25 -4.04,-5.012 -6.74,-5.954 -6.92,-2.406 -14.45,-3.218 -21.22,-5.976 -7.99,-3.25 -12.59,-9.871 -9.55,-18.68 3.17,-9.211 10.8,-10 19.21,-7.691 6.64,1.801 13.31,3.461 19.45,5.058 6.6,-18.308 12.75,-35.347 19.27,-53.39 -6.88,-2.887 -14.46,-5.66 -21.62,-9.239 -5.48,-2.75 -12.24,-5.429 -15.13,-10.171 -2.83,-4.649 -3.98,-13.61 -1.28,-17.399 2.57,-3.59 11.07,-3.101 17.02,-3.988 1.16,-0.184 2.52,1.707 3.93,2.308 9.97,4.25 20.52,12.508 29.82,11.309 7.7,-1 14.03,-13.141 20.8,-20.488 5.26,-5.711 10.18,-11.742 15.41,-17.481 5.2,-5.718 10.6,-11.261 15.52,-16.468 -5.79,-6.313 -12.38,-11.551 -16.26,-18.332 -3.3,-5.758 -5.85,-13.872 -4.42,-19.93 2.12,-9 14.85,-10.09 21.9,-2.449 6.53,7.101 12.22,14.968 18.13,22.328 13.53,-9.539 23.6,-16.11 32.92,-23.617 2.22,-1.782 3.12,-7 2.46,-10.18 -1.1,-5.223 -4.34,-9.93 -6.02,-15.07 -2.76,-8.422 -1.03,-15.961 7.81,-19.231 8.25,-3.062 14.23,1.16 17.88,8.77 2.66,5.519 5.23,11.07 8.35,17.699 7.6,-4.051 14.27,-7.598 20.92,-11.129 -56.84,-123.09 -214.17,-199.551 -349.84,-155.891 5.88,22.219 11.77,44.45 17.84,67.321 9.78,3.75 27.63,-5 28.83,15.429 0.54,9.41 -7.09,13.051 -27.16,14.262 -2.22,20.867 -4.45,41.867 -6.88,64.656 7.22,1.371 14.64,2.91 22.11,4.153 8.66,1.449 15.06,5.32 14.18,15.058 -0.86,9.563 -7.92,13.262 -16.46,12.821 -8.43,-0.45 -16.79,-2.489 -25.58,-3.891 -7.59,18.863 -15.39,37.68 -22.53,56.762 -0.74,1.98 1.77,6.39 3.99,8.019 5.9,4.352 12.26,8.192 18.82,11.488 8.23,4.153 12.14,10.352 8.39,18.883 -3.76,8.559 -12.11,10.278 -19.79,6.899 -9.49,-4.168 -18.12,-10.309 -27.6,-15.891 -13.2,15.27 -26.56,30.731 -40.71,47.109 4.17,6.133 8.42,12.473 12.75,18.762 4.53,6.59 5.07,13.262 -0.97,18.949 -6.05,5.7 -13.27,4.993 -18.96,-0.218 -5.35,-4.879 -9.43,-11.149 -14.93,-17.879 -17.06,12.25 -34.24,24.578 -52.08,37.379" /><path
         id="path124"
         style="fill:#f6e67d;fill-opacity:1;fill-rule:nonzero;stroke:none"
         d="m 1760.27,677.82 c -6.87,3.711 -12.88,6.961 -19.15,10.328 3.17,10.821 10.59,22.524 -3.71,28.981 -11.24,5.07 -16.72,-4.07 -21.88,-14.359 -9.7,7.019 -18.87,13.66 -28.23,20.421 14.74,13.829 16.82,19.641 10.3,27.098 -7.58,8.672 -16.88,6.77 -33.18,-7.719 -13.61,15.61 -27.22,31.219 -42.14,48.321 9,4.019 15.89,7.168 22.83,10.191 8.29,3.629 12.56,9.758 9.23,18.539 -3.19,8.41 -10.81,9.879 -18.51,7.469 -9.15,-2.86 -17.92,-6.899 -29.13,-11.328 -4.95,13.617 -10.05,26.859 -14.37,40.328 -0.69,2.16 1.5,7.172 3.48,7.922 7.65,2.918 13.39,6.918 12.43,15.879 -1.07,10.058 -9.09,11.379 -17.09,12.39 -0.67,0.078 -1.27,0.801 -3.44,2.239 1.76,16.371 3.62,33.582 5.49,50.851 11.45,1.949 26.2,-4.551 28.45,12.211 1.76,13.168 -9.94,14.688 -21.2,17.609 4.99,13.079 9.72,25.459 14.43,37.789 124.02,-40.66 203.04,-191.378 145.39,-335.16" /><path
         id="path126"
         style="fill:#f6e67d;fill-opacity:1;fill-rule:nonzero;stroke:none"
         d="m 1239.21,850.68 c 16.53,-12.008 32.16,-23.371 48.96,-35.571 -6.03,-8.007 -12.3,-15.257 -17.25,-23.308 -2.87,-4.672 -5.09,-10.742 -4.8,-16.012 0.19,-3.418 5.26,-8.969 8.5,-9.25 5.04,-0.41 11.73,1.461 15.3,4.891 6.91,6.629 12.14,15.019 19.26,24.218 11.81,-13.769 22.97,-26.789 34.95,-40.769 -9.12,-5.988 -16.9,-10.93 -24.49,-16.16 -10.87,-7.489 -13.11,-17.149 -6.15,-25.387 6.29,-7.441 13.9,-6.371 23.77,2.27 5.78,5.039 12.5,9.007 20.73,14.828 6.61,-17.551 12.75,-33.86 18.88,-50.121 -12.08,-7.297 -33.36,-5.028 -27.52,-25.028 5.26,-18.031 20.92,-5.082 34.24,-5.383 2.01,-18.089 4.01,-36.187 6.05,-54.679 -13.01,-2.528 -30.47,5.633 -31.88,-13.039 -1.4,-18.66 17.16,-13.278 29.93,-18.36 -5.3,-19.121 -10.58,-38.23 -15.93,-57.582 -130.91,50.492 -195.42,209.024 -132.55,344.442" /><path
         id="path128"
         style="fill:#231f20;fill-opacity:1;fill-rule:nonzero;stroke:none"
         d="m 2635.28,1631.21 c 8.3,-2.69 13.23,-5.38 18.32,-5.76 32.06,-2.39 64.19,-6.35 96.25,-5.94 90.05,1.13 180.09,3.93 270.12,6.6 13.84,0.41 27.85,2.63 41.32,5.91 12.35,3.01 18.23,16.36 10.95,25.62 -8.43,10.72 -18.41,21.18 -29.84,28.4 -26.03,16.47 -54.32,15.25 -83.04,6.5 -20.22,-6.15 -27.7,-1.16 -32.38,19.28 -7.6,33.17 -28.51,55.39 -58.56,69.4 -16.53,7.71 -28.61,4.95 -38.49,-10.22 -7.69,-11.82 -14.3,-25.06 -18.05,-38.6 -9.87,-35.59 -10.62,-36.68 -45.75,-27.08 -27.79,7.6 -52.76,-6.09 -60.42,-33.61 -3.31,-11.93 -10.45,-18.11 -22.7,-20.02 -10.63,-1.67 -21.28,-4.18 -31.38,-7.82 -5.24,-1.9 -9.32,-7.04 -16.35,-12.66 z m 143.68,100.01 c 9.03,18.97 15.76,37.3 25.91,53.48 18,28.68 46.36,36.18 76.95,21.4 33.51,-16.18 57.97,-41.15 69.77,-77.25 0.82,-2.52 1.85,-4.96 3.01,-8.05 6.39,1.32 12.39,2.59 18.4,3.81 34.76,7.02 66.44,-1.16 95.04,-20.96 11.34,-7.84 22.36,-17.23 23.6,-32.96 0.09,-1.07 0.71,-2.17 1.31,-3.12 16.52,-25.86 7.14,-53.63 -22.49,-62.37 -14.35,-4.23 -29.73,-6.54 -44.7,-6.86 -111.01,-2.39 -222.04,-4.45 -333.07,-5.61 -18,-0.18 -36.23,3.81 -54.04,7.43 -13.49,2.73 -24.78,10.46 -27.98,24.97 -3.28,14.93 3.29,28 15.37,35.19 13.67,8.13 29.6,12.39 44.42,18.65 3.46,1.47 8.44,3.63 9.23,6.45 11.52,40.86 60.31,57.15 94.45,47.11 2.2,-0.65 4.41,-1.2 4.82,-1.31" /><path
         id="path130"
         style="fill:#f9b2d8;fill-opacity:1;fill-rule:nonzero;stroke:none"
         d="m 2635.28,1631.21 c 7.03,5.62 11.11,10.76 16.35,12.66 10.1,3.64 20.75,6.15 31.38,7.82 12.25,1.91 19.39,8.09 22.7,20.02 7.66,27.52 32.63,41.21 60.42,33.61 35.13,-9.6 35.88,-8.51 45.75,27.08 3.75,13.54 10.36,26.78 18.05,38.6 9.88,15.17 21.96,17.93 38.49,10.22 30.05,-14.01 50.96,-36.23 58.56,-69.4 4.68,-20.44 12.16,-25.43 32.38,-19.28 28.72,8.75 57.01,9.97 83.04,-6.5 11.43,-7.22 21.41,-17.68 29.84,-28.4 7.28,-9.26 1.4,-22.61 -10.95,-25.62 -13.47,-3.28 -27.48,-5.5 -41.32,-5.91 -90.03,-2.67 -180.07,-5.47 -270.12,-6.6 -32.06,-0.41 -64.19,3.55 -96.25,5.94 -5.09,0.38 -10.02,3.07 -18.32,5.76" /><path
         id="path132"
         style="fill:#231f20;fill-opacity:1;fill-rule:nonzero;stroke:none"
         d="m 4134.22,1402.33 c 13.41,-1.36 23.72,-3.38 34.02,-3.31 48.88,0.42 97.8,0.35 146.61,2.44 71.72,3.06 143.37,7.76 215.04,11.9 5.39,0.31 10.87,1.19 16.02,2.78 3.37,1.05 8.9,4.16 8.72,5.8 -0.42,3.65 -3.06,8.17 -6.18,10.13 -6.82,4.31 -14.29,7.81 -21.87,10.64 -43.15,16.07 -86.33,16.72 -129.56,-0.19 -14.78,-5.79 -22.26,-4.22 -30.82,7.28 -17.51,23.55 -41.66,35.15 -69.47,40.97 -26.77,5.6 -44.19,-2.38 -56.82,-26.56 -2.51,-4.81 -3.46,-10.9 -7.01,-14.57 -5.91,-6.1 -12.89,-11.53 -20.29,-15.68 -4.46,-2.5 -10.61,-1.81 -15.92,-2.91 -21.69,-4.43 -43.08,-9.61 -62.47,-28.72 z m 163.42,-32.12 c -29.51,0 -74.54,-0.39 -119.56,0.22 -15.46,0.21 -30.97,2.32 -46.28,4.68 -12.5,1.92 -23.08,8.03 -26.6,21.29 -3.52,13.19 4.43,22.17 13.25,30.25 21.81,19.95 48.71,28.35 77.1,32.6 8.59,1.28 13.35,4.52 17.09,12.72 18.42,40.53 48.34,55.09 91.8,45.85 30.82,-6.54 57.9,-19.56 78.79,-44.05 1.91,-2.24 7.6,-3.29 10.61,-2.24 51.22,18 101.59,14.63 151.19,-5.73 15.88,-6.52 30.37,-14.4 35.74,-33.6 5.04,-18.02 0.52,-32.98 -17.3,-39.76 -10.36,-3.93 -21.74,-6.26 -32.82,-7.03 -72.43,-5.08 -144.91,-9.53 -233.01,-15.2" /><path
         id="path134"
         style="fill:#f6e67d;fill-opacity:1;fill-rule:nonzero;stroke:none"
         d="m 4134.22,1402.33 c 19.39,19.11 40.78,24.29 62.47,28.72 5.31,1.1 11.46,0.41 15.92,2.91 7.4,4.15 14.38,9.58 20.29,15.68 3.55,3.67 4.5,9.76 7.01,14.57 12.63,24.18 30.05,32.16 56.82,26.56 27.81,-5.82 51.96,-17.42 69.47,-40.97 8.56,-11.5 16.04,-13.07 30.82,-7.28 43.23,16.91 86.41,16.26 129.56,0.19 7.58,-2.83 15.05,-6.33 21.87,-10.64 3.12,-1.96 5.76,-6.48 6.18,-10.13 0.18,-1.64 -5.35,-4.75 -8.72,-5.8 -5.15,-1.59 -10.63,-2.47 -16.02,-2.78 -71.67,-4.14 -143.32,-8.84 -215.04,-11.9 -48.81,-2.09 -97.73,-2.02 -146.61,-2.44 -10.3,-0.07 -20.61,1.95 -34.02,3.31" /><path
         id="path136"
         style="fill:#231f20;fill-opacity:1;fill-rule:nonzero;stroke:none"
         d="m 3644.19,1755.79 c 13.3,-2.07 23.4,-4.39 33.6,-5.11 95,-6.61 190.03,-3.6 285.02,0.24 16.22,0.65 32.32,3.63 47.35,15.04 -15.97,12.59 -33.44,17.77 -52.23,18.6 -13.15,0.59 -26.4,-0.78 -39.55,-0.16 -5.83,0.29 -14,1.52 -16.87,5.43 -11.16,15.19 -27.57,17.78 -43.82,20.89 -19.14,3.66 -36.17,0.13 -49.08,-16.22 -8.18,-10.37 -19.02,-11.07 -30.48,-6.12 -17.67,7.63 -35.91,9.09 -54.74,6.02 -28.81,-4.69 -55.56,-13.67 -79.2,-38.61 z m 178.78,-38.37 c -49.05,2.06 -105.69,4.25 -162.31,7.01 -7.98,0.38 -16.21,2.61 -23.67,5.6 -22.13,8.87 -26.85,30.18 -10.74,47.8 17.24,18.87 38.97,30.7 63.25,37.76 30.7,8.93 61.55,12.76 92.76,1.58 3.11,-1.12 8.86,-0.08 11.03,2.2 20.34,21.41 45.68,23.23 72.34,18.66 19.24,-3.3 37.5,-9.46 52.63,-23.05 2.81,-2.53 8.67,-2.56 13.05,-2.32 23.48,1.3 46.89,0.9 68.69,-8.84 10.78,-4.82 21.58,-11.11 30.09,-19.14 13,-12.28 11.26,-29.14 -2.45,-40.74 -14.46,-12.22 -31.82,-18.44 -50.27,-19.51 -48.84,-2.81 -97.76,-4.52 -154.4,-7.01" /><path
         id="path138"
         style="fill:#76bdea;fill-opacity:1;fill-rule:nonzero;stroke:none"
         d="m 3644.19,1755.79 c 23.64,24.94 50.39,33.92 79.2,38.61 18.83,3.07 37.07,1.61 54.74,-6.02 11.46,-4.95 22.3,-4.25 30.48,6.12 12.91,16.35 29.94,19.88 49.08,16.22 16.25,-3.11 32.66,-5.7 43.82,-20.89 2.87,-3.91 11.04,-5.14 16.87,-5.43 13.15,-0.62 26.4,0.75 39.55,0.16 18.79,-0.83 36.26,-6.01 52.23,-18.6 -15.03,-11.41 -31.13,-14.39 -47.35,-15.04 -94.99,-3.84 -190.02,-6.85 -285.02,-0.24 -10.2,0.72 -20.3,3.04 -33.6,5.11" /><path
         id="path140"
         style="fill:#231f20;fill-opacity:1;fill-rule:nonzero;stroke:none"
         d="m 1025.55,4347.77 c -43.054,0.41 -81.085,-11.44 -106.995,-34.94 -6.653,-6.03 -10.121,-15.56 -15.055,-23.48 8.43,-3.87 16.82,-10.94 25.293,-11.03 35.195,-0.39 70.465,0.43 105.607,2.46 68.53,3.94 137.1,7.85 205.45,14.04 33.39,3.03 66.43,10.57 99.37,17.31 11.2,2.3 24.47,7.36 25.39,20.73 0.95,13.68 -11.55,20.24 -22.34,25.71 -26.47,13.45 -55.01,19.42 -84.41,18.52 -15.21,-0.46 -31.04,-3.31 -45.23,-8.67 -15.39,-5.8 -17.3,-7.25 -22.22,8.47 -10.73,34.2 -35.57,50.32 -69.03,56.04 -27.28,4.66 -47.64,-8.2 -54.07,-35.27 -2.66,-11.2 -3.24,-23.03 -3.65,-34.61 -0.39,-10.96 -5.61,-15.41 -15.98,-15.3 -7.37,0.08 -14.75,0.02 -22.13,0.02 z m 21.79,16.51 c 0.72,11.42 0.37,21.23 2.08,30.66 8.01,43.81 40.28,63.32 85.77,52.04 33.85,-8.39 58.65,-27.51 69.86,-61.96 44.36,14.16 87.35,10.47 129.53,-4.99 10.77,-3.94 21.44,-9.62 30.42,-16.69 24.66,-19.46 22.52,-47.36 -5.88,-60.39 -19.13,-8.78 -40.22,-15.35 -61.04,-17.91 -47.32,-5.81 -94.98,-8.86 -142.55,-12.42 -53.39,-3.99 -106.8,-8.05 -160.272,-10.59 -26.586,-1.26 -53.715,-1.76 -79.906,2.09 -31.243,4.6 -38.676,29.26 -16.914,52.36 30.339,32.21 69.527,45.5 112.892,47.71 11.58,0.59 23.21,0.09 36.01,0.09" /><path
         id="path142"
         style="fill:#f9b2d8;fill-opacity:1;fill-rule:nonzero;stroke:none"
         d="m 1025.55,4347.77 c 7.38,0 14.76,0.06 22.13,-0.02 10.37,-0.11 15.59,4.34 15.98,15.3 0.41,11.58 0.99,23.41 3.65,34.61 6.43,27.07 26.79,39.93 54.07,35.27 33.46,-5.72 58.3,-21.84 69.03,-56.04 4.92,-15.72 6.83,-14.27 22.22,-8.47 14.19,5.36 30.02,8.21 45.23,8.67 29.4,0.9 57.94,-5.07 84.41,-18.52 10.79,-5.47 23.29,-12.03 22.34,-25.71 -0.92,-13.37 -14.19,-18.43 -25.39,-20.73 -32.94,-6.74 -65.98,-14.28 -99.37,-17.31 -68.35,-6.19 -136.92,-10.1 -205.45,-14.04 -35.142,-2.03 -70.412,-2.85 -105.607,-2.46 -8.473,0.09 -16.863,7.16 -25.293,11.03 4.934,7.92 8.402,17.45 15.055,23.48 25.91,23.5 63.941,35.35 106.995,34.94" /><path
         id="path144"
         style="fill:#231f20;fill-opacity:1;fill-rule:nonzero;stroke:none"
         d="m 1667.02,3746.43 c 71.82,7.86 147.07,15.49 222.12,24.76 18.99,2.35 37.71,8.93 55.78,15.65 7.08,2.63 12.03,10.99 17.95,16.74 -6.31,5.13 -11.87,12.08 -19.07,15.03 -21.59,8.83 -44.44,9.6 -67.59,8.02 -12.7,-0.87 -25.7,-0.9 -38.24,0.94 -5.22,0.76 -11.83,6.41 -13.96,11.46 -8,19 -27.02,30.61 -47.42,27.08 -31.07,-5.39 -46.84,-21.33 -53.86,-54.45 -3.6,-17.02 -7.73,-19.52 -24.81,-17.95 -11.95,1.08 -24.14,1.59 -36.06,0.55 -20.95,-1.82 -41.91,-5 -58.81,-19.22 -3.85,-3.24 -5.93,-8.58 -8.83,-12.96 4.21,-2.43 8.17,-6.29 12.66,-7.06 18.67,-3.19 37.5,-5.45 60.14,-8.59 z m -2.51,-16.02 c -22.54,3.05 -42.54,5.37 -62.37,8.69 -5.9,0.98 -11.87,3.98 -16.86,7.43 -8.2,5.68 -12.33,14.76 -6.45,23.24 6.63,9.56 14.75,19.43 24.55,25.2 28.16,16.55 59.79,18.1 91.46,15.37 8.69,-0.75 11.07,0.93 12.78,9.36 8.8,43.26 45.48,68.72 88.13,61.7 19.77,-3.25 33.96,-14.03 42.61,-32.38 1.45,-3.06 5.81,-6.47 9.01,-6.68 10.43,-0.65 21.02,-0.66 31.39,0.48 24.01,2.63 47.3,-0.14 69.95,-8.01 14.6,-5.07 29.57,-11.64 30.54,-29.63 0.98,-18.34 -12.68,-28.75 -27.58,-33.64 -24.93,-8.19 -50.5,-16.11 -76.41,-19.29 -70.8,-8.71 -141.92,-14.88 -210.75,-21.84" /><path
         id="path146"
         style="fill:#76bdea;fill-opacity:1;fill-rule:nonzero;stroke:none"
         d="m 1667.02,3746.43 c -22.64,3.14 -41.47,5.4 -60.14,8.59 -4.49,0.77 -8.45,4.63 -12.66,7.06 2.9,4.38 4.98,9.72 8.83,12.96 16.9,14.22 37.86,17.4 58.81,19.22 11.92,1.04 24.11,0.53 36.06,-0.55 17.08,-1.57 21.21,0.93 24.81,17.95 7.02,33.12 22.79,49.06 53.86,54.45 20.4,3.53 39.42,-8.08 47.42,-27.08 2.13,-5.05 8.74,-10.7 13.96,-11.46 12.54,-1.84 25.54,-1.81 38.24,-0.94 23.15,1.58 46,0.81 67.59,-8.02 7.2,-2.95 12.76,-9.9 19.07,-15.03 -5.92,-5.75 -10.87,-14.11 -17.95,-16.74 -18.07,-6.72 -36.79,-13.3 -55.78,-15.65 -75.05,-9.27 -150.3,-16.9 -222.12,-24.76" /><path
         id="path148"
         style="fill:#231f20;fill-opacity:1;fill-rule:nonzero;stroke:none"
         d="m 802.98,3751.36 c -18.531,35.83 -63.527,49.84 -93.308,31.86 -17.754,-10.72 -17.938,-10.67 -28.984,8.02 -13.692,23.17 -39.364,35.89 -64.946,31.51 -27.672,-4.74 -46.523,-20.38 -54.945,-47.39 -2.969,-9.52 -8.231,-13.51 -18.031,-11.62 -4.18,0.8 -8.457,1.13 -12.661,1.88 -21.71,3.83 -43.441,4.48 -64.136,-3.97 -9.449,-3.87 -18.317,-9.87 -26.324,-16.3 -6.875,-5.52 -5.739,-11.86 3.5,-14.07 8.609,-2.06 17.503,-4.18 26.257,-4.14 21.317,0.11 42.645,1.03 63.918,2.38 72.711,4.61 145.418,9.3 218.086,14.53 16.797,1.21 33.434,4.68 51.574,7.31 z m -104.937,45.38 c 34.547,18.39 67.516,13.77 97.586,-9.64 9.391,-7.3 16.797,-18.1 22.691,-28.65 4.653,-8.33 -1.039,-16.64 -9.257,-19.72 -11.129,-4.17 -22.934,-7.86 -34.684,-8.79 -68.809,-5.46 -137.676,-10.3 -206.551,-14.85 -32.519,-2.16 -65.094,-3.81 -97.668,-4.41 -11.398,-0.21 -23.347,1.95 -34.215,5.56 -19.285,6.39 -23.406,22.65 -10.5,38.48 15.223,18.68 36.61,26.19 59.41,28.24 19.504,1.75 39.301,0.36 60.133,0.36 39.914,71.79 100.778,78.02 153.055,13.42" /><path
         id="path150"
         style="fill:#f6e67d;fill-opacity:1;fill-rule:nonzero;stroke:none"
         d="m 802.98,3751.36 c -18.14,-2.63 -34.777,-6.1 -51.574,-7.31 -72.668,-5.23 -145.375,-9.92 -218.086,-14.53 -21.273,-1.35 -42.601,-2.27 -63.918,-2.38 -8.754,-0.04 -17.648,2.08 -26.257,4.14 -9.239,2.21 -10.375,8.55 -3.5,14.07 8.007,6.43 16.875,12.43 26.324,16.3 20.695,8.45 42.426,7.8 64.136,3.97 4.204,-0.75 8.481,-1.08 12.661,-1.88 9.8,-1.89 15.062,2.1 18.031,11.62 8.422,27.01 27.273,42.65 54.945,47.39 25.582,4.38 51.254,-8.34 64.946,-31.51 11.046,-18.69 11.23,-18.74 28.984,-8.02 29.781,17.98 74.777,3.97 93.308,-31.86" /><path
         id="path152"
         style="fill:#231f20;fill-opacity:1;fill-rule:nonzero;stroke:none"
         d="m 3537.25,1679.49 c -21.62,1.76 -40.66,-3.09 -59.31,-9.67 -2.79,-0.98 -5.94,-4.49 -6.61,-7.37 -2.47,-10.65 -3.99,-21.53 -5.72,-31.55 25.62,0 48.91,0 71.64,0 0,17.1 0,32.12 0,48.59 z m 269.21,-430.56 c -18.3,-0.6 -18.18,-0.61 -19.16,-18.9 -1.68,-31.4 -3.41,-62.79 -5.35,-94.17 -3.12,-50.76 -6.49,-101.5 -9.53,-152.27 -0.23,-3.969 -0.04,-10.051 2.36,-11.719 7.28,-5.101 15.74,-8.519 22.63,-12.031 3.04,96.97 6.05,193.06 9.05,289.09 z M 3091.19,968.922 c 73.67,2.34 146.71,4.66 219.73,6.988 0,11.289 0,22.32 0,35.55 -73.74,-2.53 -146.46,-5.02 -219.73,-7.54 0,-13.041 0,-23.74 0,-34.998 z m 221.39,70.598 c 0.37,5.77 0.78,11.16 1.03,16.55 0.79,16.43 0.73,16.34 -15.31,16.29 -54.7,-0.16 -109.39,-0.28 -164.09,-0.29 -10.85,0 -21.72,0.96 -32.55,0.56 -2.75,-0.11 -7.55,-3.61 -7.7,-5.8 -0.78,-11.4 -0.36,-22.87 -0.36,-34.6 72.71,2.42 145.06,4.83 218.98,7.29 z m 568.05,-133.54 c 7.48,2.141 13.31,4.711 19.33,5.34 8.99,0.942 10.65,5.141 10.84,13.692 0.83,37.258 1.06,74.629 4.51,111.688 6.74,72.36 12.54,144.7 10.11,217.45 -0.12,3.73 -0.01,7.46 -0.01,11.99 -6.69,-0.59 -11.66,-1.38 -16.63,-1.4 -6.49,-0.03 -8.19,-2.87 -8.56,-9.24 -4.93,-86.46 -10.29,-172.88 -15.32,-259.34 -1.72,-29.711 -2.83,-59.461 -4.27,-90.18 z m -28.57,9.782 c 7.28,115.838 14.41,229.438 21.6,343.868 -5.02,-0.58 -6.56,-0.7 -8.07,-0.94 -26.98,-4.29 -26.63,-4.32 -29.42,-30.87 -9.91,-94.47 -8.46,-189.26 -8.02,-284.019 0.02,-3.481 1.27,-7.871 3.58,-10.262 5.85,-6.027 12.63,-11.16 20.33,-17.777 z m -103.29,176.608 c -29.6,-1.22 -58.14,-2.16 -86.63,-4.01 -2.4,-0.16 -6.08,-6.24 -6.33,-9.77 -1.29,-18.17 -2.01,-36.4 -2.26,-54.63 -0.34,-25.409 -0.08,-50.831 -0.08,-78.069 28.02,18.539 55.51,35.23 90.23,32.519 1.69,37.92 3.31,74.53 5.07,113.96 z m 148.48,360.77 c -21.96,-4.57 -42.3,-9.01 -62.73,-12.94 -7.63,-1.47 -10.02,-5.95 -10.33,-12.96 -1.93,-43.06 -4.02,-86.11 -5.94,-129.17 -0.15,-3.67 0.56,-7.37 0.92,-11.58 23.82,2.28 46.16,4.95 68.57,6.3 9.38,0.57 11.7,4.19 11.64,12.84 -0.36,42.36 -0.18,84.71 -0.35,127.08 -0.03,5.76 -0.97,11.53 -1.78,20.43 z m -545.68,99.28 c 10.73,-1.08 19.2,-2.93 27.59,-2.63 81.41,2.86 162.82,5.59 244.18,9.41 32.94,1.54 32.57,2.68 29.28,35.22 -1.05,10.29 -5.27,12.51 -15.08,11.84 -48.76,-3.33 -97.64,-5.16 -146.35,-9.02 -41.72,-3.3 -83.3,-8.46 -124.86,-13.4 -3.98,-0.48 -9.37,-4.51 -10.71,-8.16 -2.59,-7.01 -2.76,-14.91 -4.05,-23.26 z M 3233.88,843.84 c 24.45,16.082 49.08,32.199 73.56,48.551 1.94,1.3 4.04,4.089 4.09,6.23 0.35,15.41 0.2,30.82 0.2,45.75 -2.91,0.899 -4.02,1.57 -5.11,1.539 -70.2,-1.949 -140.42,-3.898 -210.61,-6.199 -2.14,-0.082 -5.87,-3.949 -5.95,-6.172 -0.55,-14.219 -0.28,-28.48 -0.28,-43.008 56.75,5.629 101.56,-17.84 144.1,-46.691 z m 781.43,41.902 c -0.94,-1.344 -0.2,-0.762 -0.1,-0.101 11.07,77.718 16.67,155.789 14.87,234.329 -0.19,7.78 -4.15,9.12 -10.32,8.69 -22.79,-1.57 -45.57,-3.19 -68.39,-4.8 -2.97,-31.04 -6.6,-60.72 -8.45,-90.51 -2.26,-36.381 -3.14,-72.85 -4.23,-109.291 -0.11,-3.637 1.54,-9.688 3.98,-10.668 23.81,-9.621 47.96,-18.403 72.64,-27.649 z M 2989.77,869.691 c 0,30.219 -0.17,60.77 0.02,91.321 0.85,132.908 1.8,265.808 2.73,398.718 0.03,5.44 -0.3,10.92 0.34,16.3 1.06,8.92 5.09,16.16 15.31,15.57 10.37,-0.6 12.95,-7.97 12.76,-17.31 -0.58,-26.81 -1.12,-53.63 -1.18,-80.44 -0.21,-87.83 0.14,-175.67 -0.43,-263.5 -0.35,-52.452 -2.04,-104.901 -3.06,-157.35 -0.07,-3.281 0.44,-6.559 0.76,-10.93 12.86,6.52 24.23,13.192 36.31,18.11 7.54,3.062 9.09,7.09 9.18,14.699 0.71,58.281 0.74,116.611 3.36,174.821 4.74,105.2 11.38,210.31 16.62,315.5 1.13,22.84 -0.21,45.81 -0.52,68.72 -0.1,8.26 -3.13,12.54 -12.75,11.77 -97.19,-7.78 -194.41,-15.28 -291.62,-22.61 -8.99,-0.69 -13.09,-4.32 -13.79,-13.34 -2.37,-30.59 -4.99,-61.17 -7.83,-91.71 -6.45,-69.25 -12.79,-138.52 -19.72,-207.73 -8.23,-82.17 -7.25,-164.562 -6.84,-246.948 0.07,-13.141 0.01,-26.301 0.01,-39.633 20.73,-6.059 41.1,-12.02 62.09,-18.149 9.16,15.93 17.44,31.61 17.12,52.25 -0.93,60.981 -1.25,122.078 1.51,182.98 4.71,104.09 8.81,208.13 5.12,312.32 -0.51,14.6 3.7,21.63 13,21.93 9.21,0.29 14.41,-6.85 15.24,-20.9 0.04,-0.77 0.1,-1.55 0.09,-2.32 -0.48,-73.83 -0.33,-147.67 -1.65,-221.48 -1.42,-80.03 -4.24,-160.022 -6.39,-240.041 -0.2,-7.579 -0.02,-15.157 -0.02,-22.399 19.56,6.559 37.31,12.512 56.52,18.949 0.08,1.133 0.44,4.532 0.52,7.93 2.12,89.731 4.06,179.471 6.34,269.191 1.51,59.83 3.47,119.64 5.29,179.47 0.38,12.28 5.66,19.07 14.68,18.39 11.19,-0.86 13.46,-8.82 13.45,-18.23 0,-1.55 0.07,-3.1 0.01,-4.65 -2.77,-81.57 -6.04,-163.12 -8.19,-244.7 -1.81,-68.75 -2.39,-137.541 -3.13,-206.311 -0.03,-3.14 2.93,-7.847 5.77,-9.23 19.77,-9.59 39.88,-18.5 62.97,-29.028 z m 650.98,660.189 c -90.16,-3.38 -178.86,-6.7 -268.6,-10.06 -18.17,-202.71 -30.79,-405.99 -33.49,-612.609 89.16,35.461 161.55,-0.359 233.31,-45.859 14.41,16.789 29.52,33.437 43.37,51.089 4.61,5.868 8.2,14.2 8.47,21.539 1.86,48.918 1.44,97.94 4.1,146.81 7.91,145.55 12.52,291.16 12.84,436.92 0.01,4.54 0,9.08 0,12.17 z M 4508.5,615.23 c -19.55,45.899 -57.96,62.032 -98.99,70.321 -39.47,7.98 -80.1,10.359 -120.28,14.558 -18.62,1.942 -30.14,11.02 -34.46,29.18 -1.18,4.902 -1.98,9.902 -3.21,14.781 -4.32,17.301 -7.04,35.231 -13.48,51.7 -18.33,46.882 -52.95,73.75 -103.67,77.789 -34.21,2.742 -66.42,-5.887 -96.49,-21.649 -13.23,-6.93 -23.13,-5.41 -35.07,3.262 -38.07,27.629 -78.62,42.48 -124.94,19.109 -11.75,-5.929 -21.78,-2.222 -31.66,6.688 -20.43,18.429 -41.21,36.652 -63.21,53.133 -27.51,20.609 -57.14,21.5 -87.46,4.687 -25.77,-14.289 -48.07,-32.488 -67.12,-54.957 -13.31,-15.703 -27,-31.121 -41.15,-46.051 -10.21,-10.781 -18.51,-11.332 -29.65,-2.332 -33.93,27.442 -73.33,43.699 -114.79,54.821 -14.25,3.832 -30.11,4.019 -44.96,2.722 -32.24,-2.832 -61.74,-14.933 -88.68,-32.57 -20.13,-13.172 -39.52,-27.5 -59.12,-41.461 -12.97,-9.242 -19.61,-8.75 -31.66,-0.949 -18.13,11.73 -36.37,23.629 -55.77,32.949 -39.65,19.027 -79,15.711 -117.11,-5.809 -12.85,-7.254 -25.81,-14.312 -38.98,-20.961 -8.43,-4.269 -16.7,-3.992 -22.85,4.43 -20,27.43 -48.17,41 -80.67,45.598 -29.59,4.179 -53.48,-7.348 -69.86,-32.25 -8.29,-12.59 -14.31,-26.637 -21.63,-39.887 -5.95,-10.762 -12.99,-12.48 -24.33,-7.992 -14.73,5.82 -29.51,11.789 -44.73,16.012 -46.11,12.777 -97.15,-5.59 -126.21,-43.883 -15.27,-20.117 -21.38,-42.778 -21.57,-67.52 -0.15,-18.687 -9.44,-30.578 -26.92,-36.508 -8.08,-2.75 -16.16,-5.519 -24.16,-8.492 -31.78,-11.808 -62.76,-25.308 -89.26,-46.929 -7.1,-5.778 -12.18,-14.051 -20.06,-23.391 9.84,-1.738 15.81,-3.547 21.82,-3.731 54,-1.636 108.03,-4.816 161.99,-4 65.63,0.993 131.19,6.071 196.81,8.172 75.74,2.41 151.56,2.571 227.29,5.371 154.57,5.7 309.08,12.719 463.63,18.789 84.27,3.309 168.54,6.481 252.85,8.391 81.18,1.828 162.39,2.41 243.59,2.66 47.41,0.149 94.82,-1.39 142.22,-2.23 70.33,-1.242 140.66,-3.129 211,-3.582 50.45,-0.328 100.91,1.25 152.96,2.011 z m -850.02,503.38 c 31.41,0 61.97,0 94.19,0 2.02,28.22 4.19,55.61 5.86,83.04 0.85,13.96 0.62,27.97 1.24,41.94 0.9,20.58 5.12,25.63 24.72,30.8 2.2,0.59 4.29,1.53 3.3,1.17 3.04,53.94 6.06,106.19 8.87,158.44 0.91,16.84 8.56,28.08 25.45,31.61 25.03,5.22 50.07,10.52 75.27,14.79 13.38,2.26 23.67,-5.36 26.56,-18.83 2,-9.43 2.93,-19.25 3.01,-28.89 0.39,-41.97 0.43,-83.94 0.24,-125.9 -0.04,-7.15 -0.02,-11.99 8.9,-14.21 10.94,-2.75 17.7,-14.24 17.68,-25.81 -0.07,-34.58 -0.18,-69.17 -0.23,-103.76 0,-3.03 0.27,-6.06 0.31,-6.71 24.69,0 48.65,0.56 72.57,-0.15 24.8,-0.73 31.1,-6.49 31.15,-31.63 0.08,-40.36 -0.52,-80.79 -2.76,-121.08 -2.06,-37.2 -6.66,-74.25 -10.09,-111.371 -0.14,-1.469 0.25,-3 0.46,-5.11 28.52,9.66 57.02,16.352 87.05,14.891 62.76,-3.051 113.85,-40.551 133.81,-100.238 6.13,-18.313 9.96,-37.461 13.75,-56.442 2.16,-10.789 5.7,-16.64 18.2,-17.89 42.11,-4.18 84.27,-8.668 125.99,-15.5 19.22,-3.149 39.53,-8.809 55.74,-19.04 27.17,-17.148 46.99,-42.832 57.75,-73.488 7.08,-20.172 -9.06,-36.023 -30.29,-32.344 -3.79,0.661 -7.73,1.114 -11.55,0.872 -101.03,-6.028 -202.03,-1.231 -303.01,1.132 -248.37,5.797 -496.51,-0.48 -744.65,-11.23 -203.81,-8.82 -407.77,-14 -611.65,-21.242 -63.29,-2.25 -126.51,-7.692 -189.8,-8.52 -64.07,-0.84 -128.19,2.078 -192.29,3.699 -7.67,0.192 -15.4,2.063 -22.9,3.961 -20.04,5.051 -27.11,18.02 -20.72,37.782 5.76,17.828 17.51,31.91 33.19,40.757 28.96,16.332 59.05,30.692 88.89,45.45 7.24,3.582 15.21,5.863 23.03,8.093 7.98,2.278 11.63,7.258 11.28,15.278 -3,66.82 53.43,124.5 123.51,138.699 8.31,1.68 10.46,4.851 10.5,12.871 0.27,64.5 -1.35,129.129 2.14,193.47 4.36,79.86 13.11,159.5 19.86,239.24 3.56,42.19 6.76,84.42 10.49,126.6 0.95,10.79 2.88,21.55 5.16,32.15 3.17,14.6 12.49,22.68 27.6,24 81.26,7.05 162.49,14.49 243.78,21.08 24.75,2.02 49.69,2.22 74.54,2.4 18.39,0.12 21.79,-5.15 23.77,-23.2 7.2,-65.34 -0.28,-130.44 -2.7,-195.57 -2.04,-54.74 -6.16,-109.4 -9.33,-164.09 -0.16,-2.64 -0.02,-5.3 -0.02,-8.81 11.99,-0.62 23.51,-1.71 35.04,-1.73 57.5,-0.06 115.01,0.34 172.51,0.1 9.64,-0.05 12.21,3.23 12.75,12.62 5.99,103.96 12.26,207.9 18.94,311.81 1.86,29.07 5.05,58.06 8.16,87.03 0.83,7.73 0.39,13 -7.9,16.61 -9.08,3.97 -12.74,12.68 -11.94,22.21 1.23,14.67 2.92,29.37 5.49,43.86 2.3,13.02 11.97,20.24 24.18,22.24 24.11,3.95 48.37,7.13 72.69,9.54 8.45,0.84 11.8,2.62 12.5,11.87 3.66,47.91 11.63,57.23 58.5,66.45 14.68,2.91 30.09,3.36 45.12,2.93 14.84,-0.43 21.64,-8.06 22.57,-22.97 0.88,-13.94 0.91,-27.95 0.83,-41.92 -0.05,-8.57 3.13,-11.17 11.92,-10.55 21.68,1.56 43.46,3.06 65.15,2.52 27.36,-0.67 33.69,-7.19 37.29,-34.37 1.57,-11.91 3.35,-24.08 2.44,-35.95 -0.6,-7.86 -5.92,-15.32 -8.85,-23.06 -1.81,-4.78 -4.35,-9.73 -4.43,-14.64 -1.02,-59.07 -0.87,-118.15 -2.54,-177.19 -1.97,-69.9 -5.45,-139.77 -8.2,-209.65 -0.28,-6.91 -0.04,-13.84 -0.04,-20.92" /><path
         id="path154"
         style="fill:#aee095;fill-opacity:1;fill-rule:nonzero;stroke:none"
         d="m 4508.5,615.23 c -52.05,-0.761 -102.51,-2.339 -152.96,-2.011 -70.34,0.453 -140.67,2.34 -211,3.582 -47.4,0.84 -94.81,2.379 -142.22,2.23 -81.2,-0.25 -162.41,-0.832 -243.59,-2.66 -84.31,-1.91 -168.58,-5.082 -252.85,-8.391 -154.55,-6.07 -309.06,-13.089 -463.63,-18.789 -75.73,-2.8 -151.55,-2.961 -227.29,-5.371 -65.62,-2.101 -131.18,-7.179 -196.81,-8.172 -53.96,-0.816 -107.99,2.364 -161.99,4 -6.01,0.184 -11.98,1.993 -21.82,3.731 7.88,9.34 12.96,17.613 20.06,23.391 26.5,21.621 57.48,35.121 89.26,46.929 8,2.973 16.08,5.742 24.16,8.492 17.48,5.93 26.77,17.821 26.92,36.508 0.19,24.742 6.3,47.403 21.57,67.52 29.06,38.293 80.1,56.66 126.21,43.883 15.22,-4.223 30,-10.192 44.73,-16.012 11.34,-4.488 18.38,-2.77 24.33,7.992 7.32,13.25 13.34,27.297 21.63,39.887 16.38,24.902 40.27,36.429 69.86,32.25 32.5,-4.598 60.67,-18.168 80.67,-45.598 6.15,-8.422 14.42,-8.699 22.85,-4.43 13.17,6.649 26.13,13.707 38.98,20.961 38.11,21.52 77.46,24.836 117.11,5.809 19.4,-9.32 37.64,-21.219 55.77,-32.949 12.05,-7.801 18.69,-8.293 31.66,0.949 19.6,13.961 38.99,28.289 59.12,41.461 26.94,17.637 56.44,29.738 88.68,32.57 14.85,1.297 30.71,1.11 44.96,-2.722 41.46,-11.122 80.86,-27.379 114.79,-54.821 11.14,-9 19.44,-8.449 29.65,2.332 14.15,14.93 27.84,30.348 41.15,46.051 19.05,22.469 41.35,40.668 67.12,54.957 30.32,16.813 59.95,15.922 87.46,-4.687 22,-16.481 42.78,-34.704 63.21,-53.133 9.88,-8.91 19.91,-12.617 31.66,-6.688 46.32,23.371 86.87,8.52 124.94,-19.109 11.94,-8.672 21.84,-10.192 35.07,-3.262 30.07,15.762 62.28,24.391 96.49,21.649 50.72,-4.039 85.34,-30.907 103.67,-77.789 6.44,-16.469 9.16,-34.399 13.48,-51.7 1.23,-4.879 2.03,-9.879 3.21,-14.781 4.32,-18.16 15.84,-27.238 34.46,-29.18 40.18,-4.199 80.81,-6.578 120.28,-14.558 41.03,-8.289 79.44,-24.422 98.99,-70.321" /><path
         id="path156"
         style="fill:#f9b2d8;fill-opacity:1;fill-rule:nonzero;stroke:none"
         d="m 3492.21,1391.99 c -2.41,-3.45 -7.97,-8.1 -8.8,-13.49 -1.22,-7.84 4.72,-12.84 12.84,-12.73 7.57,0.11 12.17,4.71 12.39,12.36 0.25,8.26 -4.35,12.66 -16.43,13.86 z m 68.54,-405.26 c 8.05,1.071 12.88,5.45 12.5,13.77 -0.35,7.65 -5.02,12.21 -12.71,12.24 -8.24,0.02 -13.14,-4.71 -13.12,-12.978 0.02,-8.352 5.14,-12.43 13.33,-13.032 z m -78.52,6.782 c -3.53,2.519 -8.11,8.148 -13.52,9.098 -7.85,1.37 -12.83,-4.45 -12.82,-12.661 0,-7.629 4.32,-12.289 12.06,-12.609 8.28,-0.34 12.68,4.281 14.28,16.172 z m 25.48,460.688 c 2.38,3.59 7.87,8.38 8.63,13.82 1.1,7.95 -5.03,12.69 -13.16,12.43 -7.6,-0.25 -12.1,-4.91 -12.19,-12.6 -0.11,-8.34 4.78,-12.5 16.72,-13.65 z m -30.65,-206.32 c 2.59,3.56 8.26,8.11 9.27,13.52 1.47,7.9 -4.32,12.93 -12.57,13 -7.69,0.07 -12.38,-4.21 -12.77,-12 -0.42,-8.32 4.18,-12.76 16.07,-14.52 z m 120.48,134.49 c -0.84,8.1 -5.03,13.03 -13.42,12.83 -7.76,-0.19 -12.24,-4.99 -12.41,-12.54 -0.19,-8.12 4.34,-13.25 12.69,-13.38 8.43,-0.14 12.46,4.98 13.14,13.09 z m -16.37,-299.55 c -1.08,12.11 -5.48,16.82 -13.74,16.66 -7.63,-0.13 -12.34,-4.55 -12.56,-12.27 -0.21,-8.25 4.65,-14.18 12.56,-13.05 5.43,0.79 10.19,6.28 13.74,8.66 z m -177.79,-98.398 c -3.61,2.547 -8.23,8.168 -13.68,9.129 -8.01,1.418 -12.82,-4.571 -12.81,-12.762 0.01,-7.668 4.38,-12.348 12.15,-12.66 8.36,-0.328 12.64,4.48 14.34,16.293 z M 3475.33,1150 c 8.38,0.38 13.37,4.7 13.51,12.88 0.13,8.14 -4.53,13.16 -12.88,13.22 -7.77,0.07 -12.33,-4.49 -12.75,-12.14 -0.44,-8.23 3.99,-12.91 12.12,-13.96 z m -86.34,121.92 c -8.27,-0.74 -13,-5.37 -12.79,-13.49 0.23,-8.08 5,-12.93 13.44,-12.65 7.88,0.27 12.09,5.2 12.19,12.71 0.1,8.14 -4.52,12.76 -12.84,13.43 z m 174.38,-86.03 c -8.59,-0.59 -13.33,-5.2 -13.75,-13.87 -0.41,-8.66 5.71,-15.48 13.75,-15.19 9.03,0.32 13.16,5.9 13.16,14.33 -0.01,8.39 -4.21,13.77 -13.16,14.73 z m -84.62,-102.06 c -8.75,0.44 -15.63,-5.33 -15.53,-13.45 0.11,-8.22 4.65,-13.05 12.78,-13.53 8.84,-0.52 15.26,3.32 16.02,12.78 0.72,9.04 -4.83,13.2 -13.27,14.2 z m -65.92,286.89 c 0.32,8.77 -5.46,14.86 -13.52,15.39 -8.7,0.58 -15.53,-5.22 -15.36,-13.4 0.18,-9.05 5.85,-13.34 14.09,-13.56 8.17,-0.21 14.06,3.58 14.79,11.57 z m -30.87,-287.16 c -2.38,-3.76 -7.46,-8.63 -8.53,-14.26 -1.55,-8.19 7.23,-15.75 15.45,-14.85 8.28,0.9 12.64,6 11.96,14.19 -0.73,8.82 -5.9,13.98 -18.88,14.92 z m 180.16,198 c -8.94,-0.68 -13.33,-5.94 -13.18,-14.43 0.14,-8.31 4.43,-14.24 13.29,-14.57 8.8,-0.32 13.87,4.7 13.81,13.5 -0.05,8.84 -4.6,14.45 -13.92,15.5 z m 25.75,179.51 c 7.23,0.92 13.37,4.67 12.97,13.78 -0.41,9.34 -6.66,13.74 -15.57,13.82 -8.34,0.07 -12.94,-4.84 -13.49,-12.97 -0.53,-7.72 6.83,-14.59 16.09,-14.63 z m -192.76,-318.66 c 8.3,1.05 13.4,5.28 12.85,13.72 -0.58,8.89 -5.85,14.3 -14.89,14.85 -7.88,0.47 -14.24,-6.36 -13.32,-14.21 1.04,-9 6.68,-13.54 15.36,-14.36 z m 2.88,335.15 c -8.8,-0.69 -12.33,-6.95 -12.39,-15.65 -0.07,-9.92 6.9,-17.12 15.44,-16.59 7.96,0.51 14.13,8.19 13.74,17.13 -0.39,8.6 -7.43,15.32 -16.79,15.11 z m 242.76,52.32 c 0,-3.09 0.01,-7.63 0,-12.17 -0.32,-145.76 -4.93,-291.37 -12.84,-436.92 -2.66,-48.87 -2.24,-97.892 -4.1,-146.81 -0.27,-7.339 -3.86,-15.671 -8.47,-21.539 -13.85,-17.652 -28.96,-34.3 -43.37,-51.089 -71.76,45.5 -144.15,81.32 -233.31,45.859 2.7,206.619 15.32,409.899 33.49,612.609 89.74,3.36 178.44,6.68 268.6,10.06" /><path
         id="path158"
         style="fill:#f6e67d;fill-opacity:1;fill-rule:nonzero;stroke:none"
         d="m 2989.77,869.691 c -23.09,10.528 -43.2,19.438 -62.97,29.028 -2.84,1.383 -5.8,6.09 -5.77,9.23 0.74,68.77 1.32,137.561 3.13,206.311 2.15,81.58 5.42,163.13 8.19,244.7 0.06,1.55 -0.01,3.1 -0.01,4.65 0.01,9.41 -2.26,17.37 -13.45,18.23 -9.02,0.68 -14.3,-6.11 -14.68,-18.39 -1.82,-59.83 -3.78,-119.64 -5.29,-179.47 -2.28,-89.72 -4.22,-179.46 -6.34,-269.191 -0.08,-3.398 -0.44,-6.797 -0.52,-7.93 -19.21,-6.437 -36.96,-12.39 -56.52,-18.949 0,7.242 -0.18,14.82 0.02,22.399 2.15,80.019 4.97,160.011 6.39,240.041 1.32,73.81 1.17,147.65 1.65,221.48 0.01,0.77 -0.05,1.55 -0.09,2.32 -0.83,14.05 -6.03,21.19 -15.24,20.9 -9.3,-0.3 -13.51,-7.33 -13,-21.93 3.69,-104.19 -0.41,-208.23 -5.12,-312.32 -2.76,-60.902 -2.44,-121.999 -1.51,-182.98 0.32,-20.64 -7.96,-36.32 -17.12,-52.25 -20.99,6.129 -41.36,12.09 -62.09,18.149 0,13.332 0.06,26.492 -0.01,39.633 -0.41,82.386 -1.39,164.778 6.84,246.948 6.93,69.21 13.27,138.48 19.72,207.73 2.84,30.54 5.46,61.12 7.83,91.71 0.7,9.02 4.8,12.65 13.79,13.34 97.21,7.33 194.43,14.83 291.62,22.61 9.62,0.77 12.65,-3.51 12.75,-11.77 0.31,-22.91 1.65,-45.88 0.52,-68.72 -5.24,-105.19 -11.88,-210.3 -16.62,-315.5 -2.62,-58.21 -2.65,-116.54 -3.36,-174.821 -0.09,-7.609 -1.64,-11.637 -9.18,-14.699 -12.08,-4.918 -23.45,-11.59 -36.31,-18.11 -0.32,4.371 -0.83,7.649 -0.76,10.93 1.02,52.449 2.71,104.898 3.06,157.35 0.57,87.83 0.22,175.67 0.43,263.5 0.06,26.81 0.6,53.63 1.18,80.44 0.19,9.34 -2.39,16.71 -12.76,17.31 -10.22,0.59 -14.25,-6.65 -15.31,-15.57 -0.64,-5.38 -0.31,-10.86 -0.34,-16.3 -0.93,-132.91 -1.88,-265.81 -2.73,-398.718 -0.19,-30.551 -0.02,-61.102 -0.02,-91.321" /><path
         id="path160"
         style="fill:#76bdea;fill-opacity:1;fill-rule:nonzero;stroke:none"
         d="m 4015.31,885.742 c -24.68,9.246 -48.83,18.028 -72.64,27.649 -2.44,0.98 -4.09,7.031 -3.98,10.668 1.09,36.441 1.97,72.91 4.23,109.291 1.85,29.79 5.48,59.47 8.45,90.51 22.82,1.61 45.6,3.23 68.39,4.8 6.17,0.43 10.13,-0.91 10.32,-8.69 1.8,-78.54 -3.8,-156.611 -14.87,-234.329 -0.1,-0.661 -0.84,-1.243 0.1,0.101" /><path
         id="path162"
         style="fill:#ffffff;fill-opacity:1;fill-rule:nonzero;stroke:none"
         d="m 3233.88,843.84 c -42.54,28.851 -87.35,52.32 -144.1,46.691 0,14.528 -0.27,28.789 0.28,43.008 0.08,2.223 3.81,6.09 5.95,6.172 70.19,2.301 140.41,4.25 210.61,6.199 1.09,0.031 2.2,-0.64 5.11,-1.539 0,-14.93 0.15,-30.34 -0.2,-45.75 -0.05,-2.141 -2.15,-4.93 -4.09,-6.23 -24.48,-16.352 -49.11,-32.469 -73.56,-48.551" /><path
         id="path164"
         style="fill:#ffffff;fill-opacity:1;fill-rule:nonzero;stroke:none"
         d="m 3351.57,1552.42 c 1.29,8.35 1.46,16.25 4.05,23.26 1.34,3.65 6.73,7.68 10.71,8.16 41.56,4.94 83.14,10.1 124.86,13.4 48.71,3.86 97.59,5.69 146.35,9.02 9.81,0.67 14.03,-1.55 15.08,-11.84 3.29,-32.54 3.66,-33.68 -29.28,-35.22 -81.36,-3.82 -162.77,-6.55 -244.18,-9.41 -8.39,-0.3 -16.86,1.55 -27.59,2.63" /><path
         id="path166"
         style="fill:#ffffff;fill-opacity:1;fill-rule:nonzero;stroke:none"
         d="m 3897.25,1453.14 c 0.81,-8.9 1.75,-14.67 1.78,-20.43 0.17,-42.37 -0.01,-84.72 0.35,-127.08 0.06,-8.65 -2.26,-12.27 -11.64,-12.84 -22.41,-1.35 -44.75,-4.02 -68.57,-6.3 -0.36,4.21 -1.07,7.91 -0.92,11.58 1.92,43.06 4.01,86.11 5.94,129.17 0.31,7.01 2.7,11.49 10.33,12.96 20.43,3.93 40.77,8.37 62.73,12.94" /><path
         id="path168"
         style="fill:#ffffff;fill-opacity:1;fill-rule:nonzero;stroke:none"
         d="m 3748.77,1092.37 c -1.76,-39.43 -3.38,-76.04 -5.07,-113.96 -34.72,2.711 -62.21,-13.98 -90.23,-32.519 0,27.238 -0.26,52.66 0.08,78.069 0.25,18.23 0.97,36.46 2.26,54.63 0.25,3.53 3.93,9.61 6.33,9.77 28.49,1.85 57.03,2.79 86.63,4.01" /><path
         id="path170"
         style="fill:#ffffff;fill-opacity:1;fill-rule:nonzero;stroke:none"
         d="m 3852.06,915.762 c -7.7,6.617 -14.48,11.75 -20.33,17.777 -2.31,2.391 -3.56,6.781 -3.58,10.262 -0.44,94.759 -1.89,189.549 8.02,284.019 2.79,26.55 2.44,26.58 29.42,30.87 1.51,0.24 3.05,0.36 8.07,0.94 -7.19,-114.43 -14.32,-228.03 -21.6,-343.868" /><path
         id="path172"
         style="fill:#ffffff;fill-opacity:1;fill-rule:nonzero;stroke:none"
         d="m 3880.63,905.98 c 1.44,30.719 2.55,60.469 4.27,90.18 5.03,86.46 10.39,172.88 15.32,259.34 0.37,6.37 2.07,9.21 8.56,9.24 4.97,0.02 9.94,0.81 16.63,1.4 0,-4.53 -0.11,-8.26 0.01,-11.99 2.43,-72.75 -3.37,-145.09 -10.11,-217.45 -3.45,-37.059 -3.68,-74.43 -4.51,-111.688 -0.19,-8.551 -1.85,-12.75 -10.84,-13.692 -6.02,-0.629 -11.85,-3.199 -19.33,-5.34" /><path
         id="path174"
         style="fill:#ffffff;fill-opacity:1;fill-rule:nonzero;stroke:none"
         d="m 3312.58,1039.52 c -73.92,-2.46 -146.27,-4.87 -218.98,-7.29 0,11.73 -0.42,23.2 0.36,34.6 0.15,2.19 4.95,5.69 7.7,5.8 10.83,0.4 21.7,-0.56 32.55,-0.56 54.7,0.01 109.39,0.13 164.09,0.29 16.04,0.05 16.1,0.14 15.31,-16.29 -0.25,-5.39 -0.66,-10.78 -1.03,-16.55" /><path
         id="path176"
         style="fill:#ffffff;fill-opacity:1;fill-rule:nonzero;stroke:none"
         d="m 3091.19,968.922 c 0,11.258 0,21.957 0,34.998 73.27,2.52 145.99,5.01 219.73,7.54 0,-13.23 0,-24.261 0,-35.55 -73.02,-2.328 -146.06,-4.648 -219.73,-6.988" /><path
         id="path178"
         style="fill:#ffffff;fill-opacity:1;fill-rule:nonzero;stroke:none"
         d="m 3806.46,1248.93 c -3,-96.03 -6.01,-192.12 -9.05,-289.09 -6.89,3.512 -15.35,6.93 -22.63,12.031 -2.4,1.668 -2.59,7.75 -2.36,11.719 3.04,50.77 6.41,101.51 9.53,152.27 1.94,31.38 3.67,62.77 5.35,94.17 0.98,18.29 0.86,18.3 19.16,18.9" /><path
         id="path180"
         style="fill:#ffffff;fill-opacity:1;fill-rule:nonzero;stroke:none"
         d="m 3537.25,1679.49 c 0,-16.47 0,-31.49 0,-48.59 -22.73,0 -46.02,0 -71.64,0 1.73,10.02 3.25,20.9 5.72,31.55 0.67,2.88 3.82,6.39 6.61,7.37 18.65,6.58 37.69,11.43 59.31,9.67" /><path
         id="path182"
         style="fill:#231f20;fill-opacity:1;fill-rule:nonzero;stroke:none"
         d="m 3397.99,1477.56 c 9.36,0.21 16.4,-6.51 16.79,-15.11 0.39,-8.94 -5.78,-16.62 -13.74,-17.13 -8.54,-0.53 -15.51,6.67 -15.44,16.59 0.06,8.7 3.59,14.96 12.39,15.65" /><path
         id="path184"
         style="fill:#231f20;fill-opacity:1;fill-rule:nonzero;stroke:none"
         d="m 3395.11,1142.41 c -8.68,0.82 -14.32,5.36 -15.36,14.36 -0.92,7.85 5.44,14.68 13.32,14.21 9.04,-0.55 14.31,-5.96 14.89,-14.85 0.55,-8.44 -4.55,-12.67 -12.85,-13.72" /><path
         id="path186"
         style="fill:#231f20;fill-opacity:1;fill-rule:nonzero;stroke:none"
         d="m 3587.87,1461.07 c -9.26,0.04 -16.62,6.91 -16.09,14.63 0.55,8.13 5.15,13.04 13.49,12.97 8.91,-0.08 15.16,-4.48 15.57,-13.82 0.4,-9.11 -5.74,-12.86 -12.97,-13.78" /><path
         id="path188"
         style="fill:#231f20;fill-opacity:1;fill-rule:nonzero;stroke:none"
         d="m 3562.12,1281.56 c 9.32,-1.05 13.87,-6.66 13.92,-15.5 0.06,-8.8 -5.01,-13.82 -13.81,-13.5 -8.86,0.33 -13.15,6.26 -13.29,14.57 -0.15,8.49 4.24,13.75 13.18,14.43" /><path
         id="path190"
         style="fill:#231f20;fill-opacity:1;fill-rule:nonzero;stroke:none"
         d="m 3381.96,1083.56 c 12.98,-0.94 18.15,-6.1 18.88,-14.92 0.68,-8.19 -3.68,-13.29 -11.96,-14.19 -8.22,-0.9 -17,6.66 -15.45,14.85 1.07,5.63 6.15,10.5 8.53,14.26" /><path
         id="path192"
         style="fill:#231f20;fill-opacity:1;fill-rule:nonzero;stroke:none"
         d="m 3412.83,1370.72 c -0.73,-7.99 -6.62,-11.78 -14.79,-11.57 -8.24,0.22 -13.91,4.51 -14.09,13.56 -0.17,8.18 6.66,13.98 15.36,13.4 8.06,-0.53 13.84,-6.62 13.52,-15.39" /><path
         id="path194"
         style="fill:#231f20;fill-opacity:1;fill-rule:nonzero;stroke:none"
         d="m 3478.76,1083.83 c 8.43,-1 13.98,-5.16 13.26,-14.2 -0.76,-9.46 -7.18,-13.3 -16.02,-12.78 -8.13,0.48 -12.67,5.31 -12.78,13.53 -0.1,8.12 6.78,13.89 15.54,13.45" /><path
         id="path196"
         style="fill:#231f20;fill-opacity:1;fill-rule:nonzero;stroke:none"
         d="m 3563.37,1185.89 c 8.95,-0.96 13.15,-6.34 13.16,-14.73 0,-8.43 -4.13,-14.01 -13.16,-14.33 -8.04,-0.29 -14.16,6.53 -13.75,15.19 0.42,8.67 5.16,13.28 13.75,13.87" /><path
         id="path198"
         style="fill:#231f20;fill-opacity:1;fill-rule:nonzero;stroke:none"
         d="m 3388.99,1271.92 c 8.32,-0.67 12.94,-5.29 12.84,-13.43 -0.1,-7.51 -4.31,-12.44 -12.19,-12.71 -8.44,-0.28 -13.21,4.57 -13.44,12.65 -0.21,8.12 4.52,12.75 12.79,13.49" /><path
         id="path200"
         style="fill:#231f20;fill-opacity:1;fill-rule:nonzero;stroke:none"
         d="m 3475.33,1150 c -8.13,1.05 -12.56,5.73 -12.12,13.96 0.42,7.65 4.98,12.21 12.75,12.14 8.35,-0.06 13.01,-5.08 12.88,-13.22 -0.14,-8.18 -5.13,-12.5 -13.51,-12.88" /><path
         id="path202"
         style="fill:#231f20;fill-opacity:1;fill-rule:nonzero;stroke:none"
         d="m 3403.38,984.422 c -1.7,-11.813 -5.98,-16.621 -14.34,-16.293 -7.77,0.312 -12.14,4.992 -12.15,12.66 -0.01,8.191 4.8,14.18 12.81,12.762 5.45,-0.961 10.07,-6.582 13.68,-9.129" /><path
         id="path204"
         style="fill:#231f20;fill-opacity:1;fill-rule:nonzero;stroke:none"
         d="m 3581.17,1082.82 c -3.55,-2.38 -8.31,-7.87 -13.74,-8.66 -7.91,-1.13 -12.77,4.8 -12.56,13.05 0.22,7.72 4.93,12.14 12.56,12.27 8.26,0.16 12.66,-4.55 13.74,-16.66" /><path
         id="path206"
         style="fill:#231f20;fill-opacity:1;fill-rule:nonzero;stroke:none"
         d="m 3597.54,1382.37 c -0.68,-8.11 -4.71,-13.23 -13.14,-13.09 -8.35,0.13 -12.88,5.26 -12.69,13.38 0.17,7.55 4.65,12.35 12.41,12.54 8.39,0.2 12.58,-4.73 13.42,-12.83" /><path
         id="path208"
         style="fill:#231f20;fill-opacity:1;fill-rule:nonzero;stroke:none"
         d="m 3477.06,1247.88 c -11.89,1.76 -16.49,6.2 -16.07,14.52 0.39,7.79 5.08,12.07 12.77,12 8.25,-0.07 14.04,-5.1 12.57,-13 -1.01,-5.41 -6.68,-9.96 -9.27,-13.52" /><path
         id="path210"
         style="fill:#231f20;fill-opacity:1;fill-rule:nonzero;stroke:none"
         d="m 3507.71,1454.2 c -11.94,1.15 -16.83,5.31 -16.72,13.65 0.09,7.69 4.59,12.35 12.19,12.6 8.13,0.26 14.26,-4.48 13.16,-12.43 -0.76,-5.44 -6.25,-10.23 -8.63,-13.82" /><path
         id="path212"
         style="fill:#231f20;fill-opacity:1;fill-rule:nonzero;stroke:none"
         d="m 3482.23,993.512 c -1.6,-11.891 -6,-16.512 -14.28,-16.172 -7.74,0.32 -12.06,4.98 -12.06,12.609 -0.01,8.211 4.97,14.031 12.82,12.661 5.41,-0.95 9.99,-6.579 13.52,-9.098" /><path
         id="path214"
         style="fill:#231f20;fill-opacity:1;fill-rule:nonzero;stroke:none"
         d="m 3560.75,986.73 c -8.19,0.602 -13.31,4.68 -13.33,13.032 -0.02,8.268 4.88,12.998 13.12,12.978 7.69,-0.03 12.36,-4.59 12.71,-12.24 0.38,-8.32 -4.45,-12.699 -12.5,-13.77" /><path
         id="path216"
         style="fill:#231f20;fill-opacity:1;fill-rule:nonzero;stroke:none"
         d="m 3492.21,1391.99 c 12.08,-1.2 16.68,-5.6 16.43,-13.86 -0.22,-7.65 -4.82,-12.25 -12.39,-12.36 -8.12,-0.11 -14.06,4.89 -12.84,12.73 0.83,5.39 6.39,10.04 8.8,13.49" /><path
         id="path218"
         style="fill:#231f20;fill-opacity:1;fill-rule:nonzero;stroke:none"
         d="m 4008.14,4273.06 c -0.51,-0.63 -2.56,-3.98 -5.42,-6.4 -17.68,-15.04 -33.99,-32.46 -53.67,-44.23 -40.01,-23.94 -75.82,-16.2 -105.2,20.04 -9.41,11.6 -16.68,24.93 -25.31,38.05 -1.16,-0.89 -2.64,-1.97 -4.06,-3.14 -32.18,-26.57 -66.18,-50.56 -104.7,-66.87 -15.56,-6.58 -20.3,-16.68 -20.67,-32.09 -1.37,-56.31 -3.34,-112.62 -5.01,-168.93 -0.45,-15.23 -0.32,-15.12 14.72,-15.39 147.64,-2.68 295.26,-5.78 442.9,-7.96 67.5,-0.99 135.02,-0.17 203.41,-0.17 -0.45,-1.48 0.17,-0.37 0.18,0.74 0.26,72.61 0.63,145.22 0.27,217.84 -0.02,4.44 -4.83,10.47 -9.06,13.02 -31.58,19.03 -63.56,37.4 -95.46,55.91 -7.61,4.43 -15.36,8.61 -23.63,13.23 -3.31,-5.29 -5.94,-9.54 -8.61,-13.76 -15.44,-24.39 -31.83,-47.93 -55.62,-65.22 -34.21,-24.85 -75.74,-22.82 -104.47,8.21 -15.49,16.72 -26.77,37.34 -40.59,57.12 z M 3681.69,3972.5 c -1.86,-39.57 -4.22,-76.33 -5.18,-113.13 -2.58,-99.8 -3.66,-199.57 5.17,-299.23 2.45,-27.65 12.57,-48.58 33.53,-67 43.34,-38.06 90.34,-70.94 137.71,-103.51 41.89,-28.8 85.47,-53.35 135.95,-64.05 27.51,-5.83 54.19,-9.44 80.48,4.68 74.75,40.12 142.92,89.2 202.35,149.8 30.28,30.87 52.32,67.32 55.77,111.38 5.08,64.97 8.52,130.1 11.49,195.22 2.4,52.35 3.08,104.79 4.49,157.18 0.14,5.61 0.02,11.22 0.02,15.76 -221.01,4.31 -440.38,8.58 -661.78,12.9 z m -32.39,-215.74 c 3.46,75.52 7.24,152.32 10.43,229.14 2.44,59 4.3,118.02 6.09,177.03 1.77,58.2 4.2,52 46.35,74.77 28.88,15.6 55.54,35.39 82.74,54 6.55,4.48 11.22,11.7 16.81,17.62 9.74,10.31 19.53,8.02 24.4,-5.25 7.41,-20.2 16.86,-39.27 32.54,-54.55 18.61,-18.14 37.14,-22.54 60.4,-10.96 14.38,7.15 27.61,17.21 39.95,27.62 10.91,9.2 19.43,21.2 29.93,30.95 5.24,4.88 12.5,10.35 18.95,10.5 9.51,0.22 11.58,-9.72 13.93,-17.67 6.33,-21.53 15.89,-41.26 32.21,-57.2 23.29,-22.76 50.64,-24.51 76.7,-5.18 22.08,16.38 36.26,39.16 50.83,61.67 2.11,3.25 3.87,6.74 5.99,9.99 8.26,12.66 16.96,15.15 30.76,8.25 7.98,-3.98 15.63,-8.63 23.35,-13.1 33.58,-19.46 67.04,-39.12 100.75,-58.35 9.17,-5.23 15.35,-11.87 15.58,-22.74 1.1,-53.54 3.7,-107.11 2.78,-160.62 -1.52,-89.31 -4.71,-178.6 -8.37,-267.86 -2.62,-63.99 -6.55,-127.95 -11.09,-191.84 -3.05,-42.84 -21.65,-79.69 -48.36,-112.78 -37.32,-46.24 -85.12,-80.46 -132.54,-114.96 -21.62,-15.73 -45.17,-28.78 -67.46,-43.61 -39.24,-26.12 -80.85,-30.22 -125.8,-17.39 -34.57,9.87 -68.06,21.53 -98.45,41.03 -61.16,39.24 -120.77,80.4 -176.23,127.72 -29.44,25.13 -43.31,54.6 -44.49,92.61 -1.97,63.25 -5.66,126.45 -8.68,191.16" /><path
         id="path220"
         style="fill:#f36648;fill-opacity:1;fill-rule:nonzero;stroke:none"
         d="m 3854.14,3670.98 c 0.31,4.63 0.32,10.44 1.13,16.13 5.18,36.58 23.09,66.12 49.72,91.18 26.66,25.07 57.59,43.57 90.39,58.88 18.16,8.47 25.16,20.28 22.39,40.4 -3.45,25.16 -7.73,29.83 -33.13,27.67 -2.7,-0.23 -5.41,-0.63 -8.03,-1.31 -97.32,-25.15 -159.87,-87.33 -186.33,-183.03 -15.84,-57.33 -3.45,-111.42 40.13,-154.82 49.91,-49.68 127.88,-44.03 168.33,11.25 21.99,30.07 18.72,67.28 -8.58,92.66 -23.46,21.79 -51.88,28.47 -82.24,21.53 -18.13,-4.14 -35.13,-13.22 -53.78,-20.54 z m 239.28,46.41 c 10.75,30.93 27.73,56.85 53.11,75.81 19.79,14.78 41.76,26.69 63.03,39.44 8.28,4.96 14.95,10.65 13.14,21.06 -1.94,11.05 -3.98,22.34 -8.16,32.64 -1.8,4.45 -8.75,8.78 -13.92,9.59 -26.35,4.1 -48.63,-7.89 -69.79,-21 -66.94,-41.45 -100.36,-103.43 -109.16,-180.42 -4.09,-35.79 0.07,-69.67 18.74,-101.05 30.34,-51 109.9,-97.71 180.19,-47.06 30.27,21.82 44.22,49.7 41.27,85.53 -3.19,38.7 -20.58,69.38 -59.21,82.98 -14.03,4.93 -29.43,8.16 -44.2,8.2 -21.12,0.06 -42.24,-3.53 -65.04,-5.72 z m -411.73,255.11 c 221.4,-4.32 440.77,-8.59 661.78,-12.9 0,-4.54 0.12,-10.15 -0.02,-15.76 -1.41,-52.39 -2.09,-104.83 -4.49,-157.18 -2.97,-65.12 -6.41,-130.25 -11.49,-195.22 -3.45,-44.06 -25.49,-80.51 -55.77,-111.38 -59.43,-60.6 -127.6,-109.68 -202.35,-149.8 -26.29,-14.12 -52.97,-10.51 -80.48,-4.68 -50.48,10.7 -94.06,35.25 -135.95,64.05 -47.37,32.57 -94.37,65.45 -137.71,103.51 -20.96,18.42 -31.08,39.35 -33.53,67 -8.83,99.66 -7.75,199.43 -5.17,299.23 0.96,36.8 3.32,73.56 5.18,113.13" /><path
         id="path222"
         style="fill:#ffffff;fill-opacity:1;fill-rule:nonzero;stroke:none"
         d="m 4112.58,4145.85 c 0,-14.49 0.27,-27.61 -0.08,-40.71 -0.37,-13.59 -2.11,-27.19 -1.6,-40.71 0.14,-3.87 5.69,-10.12 9.31,-10.55 3.63,-0.42 9.74,4.26 11.53,8.19 2.44,5.36 2.13,12.11 2.45,18.29 1.17,22.03 2.11,44.08 3.18,67.18 9.75,0.8 18.95,1.65 28.16,2.3 7.84,0.55 14.19,3.28 13.85,12.23 -0.33,9.09 -7.28,11.26 -14.88,11.01 -9.3,-0.31 -18.58,-1.4 -27.89,-1.89 -15.51,-0.82 -31.03,-1.27 -46.53,-2.19 -8.13,-0.49 -14.86,-3.75 -14.55,-13.18 0.3,-9.14 7.17,-11.11 14.84,-10.96 6.95,0.14 13.91,0.61 22.21,0.99 z m -145.66,-27.64 c -0.46,-0.09 -0.93,-0.18 -1.4,-0.27 2.41,-14.86 3.36,-30.16 7.63,-44.47 4.95,-16.58 15.36,-30.54 34.08,-32.83 19.12,-2.34 29.61,11.25 38.14,25.64 13.79,23.27 18.11,49.29 20.28,75.75 0.65,7.89 -0.68,15.76 -10.38,16.45 -9.57,0.68 -11.19,-6.62 -12.74,-14.63 -3.75,-19.32 -7.61,-38.73 -13.41,-57.5 -2.9,-9.41 -7.95,-23.01 -19.67,-21.35 -12.83,1.82 -16.34,15.97 -17.07,27.6 -1.08,17.31 -0.24,34.76 0.17,52.14 0.17,7.21 -0.33,13.76 -9.03,14.85 -8.06,1.02 -12.48,-3.95 -13.54,-11.32 -1.44,-9.95 -2.08,-20.03 -3.06,-30.06 z m 246.26,-9.06 c -5.47,-3.81 -10.92,-6.92 -15.51,-11.01 -4.58,-4.08 -9.09,-8.65 -12.24,-13.84 -12.16,-20.05 -1,-43.13 22.33,-43.93 13.61,-0.47 27.49,3 41.01,5.85 7.27,1.53 13,6.79 10.39,15.34 -2.67,8.76 -10.1,8.3 -17.34,6.66 -7.92,-1.8 -15.75,-4.55 -23.75,-5.27 -4.31,-0.39 -8.92,2.61 -13.38,4.09 2.05,3.91 3.14,9.11 6.35,11.49 8.02,5.98 17.55,9.97 25.4,16.14 5.01,3.94 10.88,10.18 11.17,15.66 0.23,4.67 -6.39,10.37 -11.03,14.42 -4.29,3.73 -10.57,5.2 -14.76,9 -2.02,1.83 -2.92,7.9 -1.44,10.06 7.23,10.49 22.6,14.99 34.08,10.4 7.26,-2.9 14.22,-4.16 17.81,4.19 3.96,9.24 -1.98,14.8 -9.87,17.94 -15.09,6 -29.84,3.91 -43.61,-3.99 -30.68,-17.59 -34.83,-43.71 -6.61,-61.42 0.28,-0.18 0.38,-0.66 1,-1.78 z m -248.48,-3.54 c -4.85,13.1 -7.62,26.7 -14.44,37.84 -15.95,26.06 -48.63,28.64 -69.22,6 -20.46,-22.51 -23.57,-49.07 -13.4,-76.97 6.53,-17.93 19.3,-30.27 39.18,-31.88 20.39,-1.67 35.41,8.75 44.39,26 6.09,11.69 8.84,25.13 13.49,39.01 z m -198.38,-35.16 c 5.56,-4.39 9.21,-7.21 12.79,-10.1 17.35,-13.99 37.43,-22.18 59.1,-25.8 4.6,-0.77 12.37,3.05 14.83,7.09 3.84,6.31 -1.13,11.76 -7.65,14.28 -4.32,1.67 -8.97,2.44 -13.43,3.77 -16.24,4.85 -31.43,11.54 -44.45,24.8 3.3,1.08 5.06,1.78 6.89,2.24 16.76,4.18 32.95,9.53 44.58,23.35 17.18,20.4 8.81,51.95 -16.97,57.87 -15.03,3.45 -31.42,2.02 -47.12,1.19 -12.5,-0.66 -18.99,-9.32 -20.79,-21.49 -2.31,-15.73 -4.78,-31.45 -6.97,-47.2 -2.61,-18.82 -5.31,-37.64 -7.33,-56.53 -0.83,-7.79 2.86,-14.22 11.42,-14.69 9.11,-0.49 11.32,6.1 11.9,13.94 0.61,8.43 1.94,16.8 3.2,27.28 z m 241.82,202.61 c 13.82,-19.78 25.1,-40.4 40.59,-57.12 28.73,-31.03 70.26,-33.06 104.47,-8.21 23.79,17.29 40.18,40.83 55.62,65.22 2.67,4.22 5.3,8.47 8.61,13.76 8.27,-4.62 16.02,-8.8 23.63,-13.23 31.9,-18.51 63.88,-36.88 95.46,-55.91 4.23,-2.55 9.04,-8.58 9.06,-13.02 0.36,-72.62 -0.01,-145.23 -0.27,-217.84 -0.01,-1.11 -0.63,-2.22 -0.18,-0.74 -68.39,0 -135.91,-0.82 -203.41,0.17 -147.64,2.18 -295.26,5.28 -442.9,7.96 -15.04,0.27 -15.17,0.16 -14.72,15.39 1.67,56.31 3.64,112.62 5.01,168.93 0.37,15.41 5.11,25.51 20.67,32.09 38.52,16.31 72.52,40.3 104.7,66.87 1.42,1.17 2.9,2.25 4.06,3.14 8.63,-13.12 15.9,-26.45 25.31,-38.05 29.38,-36.24 65.19,-43.98 105.2,-20.04 19.68,11.77 35.99,29.19 53.67,44.23 2.86,2.42 4.91,5.77 5.42,6.4" /><path
         id="path224"
         style="fill:#ffffff;fill-opacity:1;fill-rule:nonzero;stroke:none"
         d="m 4153.48,3610.42 c 11.58,3.97 21.96,6.06 30.83,10.92 12.73,6.99 13.15,18.74 2.51,28.41 -15.97,14.5 -50.13,15.84 -67.32,2.65 -11.1,-8.52 -12.21,-20.2 -0.42,-27.7 10.34,-6.57 22.89,-9.67 34.4,-14.28 z m -60.06,106.97 c 22.8,2.19 43.92,5.78 65.04,5.72 14.77,-0.04 30.17,-3.27 44.2,-8.2 38.63,-13.6 56.02,-44.28 59.21,-82.98 2.95,-35.83 -11,-63.71 -41.27,-85.53 -70.29,-50.65 -149.85,-3.94 -180.19,47.06 -18.67,31.38 -22.83,65.26 -18.74,101.05 8.8,76.99 42.22,138.97 109.16,180.42 21.16,13.11 43.44,25.1 69.79,21 5.17,-0.81 12.12,-5.14 13.92,-9.59 4.18,-10.3 6.22,-21.59 8.16,-32.64 1.81,-10.41 -4.86,-16.1 -13.14,-21.06 -21.27,-12.75 -43.24,-24.66 -63.03,-39.44 -25.38,-18.96 -42.36,-44.88 -53.11,-75.81" /><path
         id="path226"
         style="fill:#ffffff;fill-opacity:1;fill-rule:nonzero;stroke:none"
         d="m 3903.39,3591.15 c 17.88,1.48 29.77,6.39 37.43,18.49 7.72,12.21 2.31,23.33 -12,25.03 -14.12,1.69 -26.62,-2.7 -34.96,-13.96 -3.78,-5.1 -6.45,-14.33 -4.36,-19.59 2.11,-5.27 10.77,-7.93 13.89,-9.97 z m -49.25,79.83 c 18.65,7.32 35.65,16.4 53.78,20.54 30.36,6.94 58.78,0.26 82.24,-21.53 27.3,-25.38 30.57,-62.59 8.58,-92.66 -40.45,-55.28 -118.42,-60.93 -168.33,-11.25 -43.58,43.4 -55.97,97.49 -40.13,154.82 26.46,95.7 89.01,157.88 186.33,183.03 2.62,0.68 5.33,1.08 8.03,1.31 25.4,2.16 29.68,-2.51 33.13,-27.67 2.77,-20.12 -4.23,-31.93 -22.39,-40.4 -32.8,-15.31 -63.73,-33.81 -90.39,-58.88 -26.63,-25.06 -44.54,-54.6 -49.72,-91.18 -0.81,-5.69 -0.82,-11.5 -1.13,-16.13" /><path
         id="path228"
         style="fill:#231f20;fill-opacity:1;fill-rule:nonzero;stroke:none"
         d="m 3771.87,4108.02 c 1.02,-1.03 2.05,-2.06 3.07,-3.08 12.95,4.65 26.14,8.75 38.78,14.15 7.05,3.01 11.68,9.06 9.98,17.74 -1.71,8.71 -8.89,10.92 -15.81,10.6 -10.2,-0.46 -20.32,-2.76 -30.46,-4.4 -0.31,-0.05 -0.51,-1.39 -0.62,-2.15 -1.66,-10.95 -3.29,-21.91 -4.94,-32.86 z m -5.55,-37.57 c -1.26,-10.48 -2.59,-18.85 -3.2,-27.28 -0.58,-7.84 -2.79,-14.43 -11.9,-13.94 -8.56,0.47 -12.25,6.9 -11.42,14.69 2.02,18.89 4.72,37.71 7.33,56.53 2.19,15.75 4.66,31.47 6.97,47.2 1.8,12.17 8.29,20.83 20.79,21.49 15.7,0.83 32.09,2.26 47.12,-1.19 25.78,-5.92 34.15,-37.47 16.97,-57.87 -11.63,-13.82 -27.82,-19.17 -44.58,-23.35 -1.83,-0.46 -3.59,-1.16 -6.89,-2.24 13.02,-13.26 28.21,-19.95 44.45,-24.8 4.46,-1.33 9.11,-2.1 13.43,-3.77 6.52,-2.52 11.49,-7.97 7.65,-14.28 -2.46,-4.04 -10.23,-7.86 -14.83,-7.09 -21.67,3.62 -41.75,11.81 -59.1,25.8 -3.58,2.89 -7.23,5.71 -12.79,10.1" /><path
         id="path230"
         style="fill:#231f20;fill-opacity:1;fill-rule:nonzero;stroke:none"
         d="m 3939.87,4101.96 c -2.16,9.52 -2.85,16.18 -5.23,22.18 -3.37,8.51 -8.73,15.75 -19.08,16.57 -10.19,0.83 -17.01,-4.8 -21.93,-12.74 -10.14,-16.4 -11.47,-33.61 -2.4,-50.86 8.81,-16.73 26.81,-18.32 37.22,-2.53 5.73,8.68 8.25,19.48 11.42,27.38 z m 24.83,3.65 c -4.65,-13.88 -7.4,-27.32 -13.49,-39.01 -8.98,-17.25 -24,-27.67 -44.39,-26 -19.88,1.61 -32.65,13.95 -39.18,31.88 -10.17,27.9 -7.06,54.46 13.4,76.97 20.59,22.64 53.27,20.06 69.22,-6 6.82,-11.14 9.59,-24.74 14.44,-37.84" /><path
         id="path232"
         style="fill:#231f20;fill-opacity:1;fill-rule:nonzero;stroke:none"
         d="m 4213.18,4109.15 c -0.62,1.12 -0.72,1.6 -1,1.78 -28.22,17.71 -24.07,43.83 6.61,61.42 13.77,7.9 28.52,9.99 43.61,3.99 7.89,-3.14 13.83,-8.7 9.87,-17.94 -3.59,-8.35 -10.55,-7.09 -17.81,-4.19 -11.48,4.59 -26.85,0.09 -34.08,-10.4 -1.48,-2.16 -0.58,-8.23 1.44,-10.06 4.19,-3.8 10.47,-5.27 14.76,-9 4.64,-4.05 11.26,-9.75 11.03,-14.42 -0.29,-5.48 -6.16,-11.72 -11.17,-15.66 -7.85,-6.17 -17.38,-10.16 -25.4,-16.14 -3.21,-2.38 -4.3,-7.58 -6.35,-11.49 4.46,-1.48 9.07,-4.48 13.38,-4.09 8,0.72 15.83,3.47 23.75,5.27 7.24,1.64 14.67,2.1 17.34,-6.66 2.61,-8.55 -3.12,-13.81 -10.39,-15.34 -13.52,-2.85 -27.4,-6.32 -41.01,-5.85 -23.33,0.8 -34.49,23.88 -22.33,43.93 3.15,5.19 7.66,9.76 12.24,13.84 4.59,4.09 10.04,7.2 15.51,11.01" /><path
         id="path234"
         style="fill:#231f20;fill-opacity:1;fill-rule:nonzero;stroke:none"
         d="m 3966.92,4118.21 c 0.98,10.03 1.62,20.11 3.06,30.06 1.06,7.37 5.48,12.34 13.54,11.32 8.7,-1.09 9.2,-7.64 9.03,-14.85 -0.41,-17.38 -1.25,-34.83 -0.17,-52.14 0.73,-11.63 4.24,-25.78 17.07,-27.6 11.72,-1.66 16.77,11.94 19.67,21.35 5.8,18.77 9.66,38.18 13.41,57.5 1.55,8.01 3.17,15.31 12.74,14.63 9.7,-0.69 11.03,-8.56 10.38,-16.45 -2.17,-26.46 -6.49,-52.48 -20.28,-75.75 -8.53,-14.39 -19.02,-27.98 -38.14,-25.64 -18.72,2.29 -29.13,16.25 -34.08,32.83 -4.27,14.31 -5.22,29.61 -7.63,44.47 0.47,0.09 0.94,0.18 1.4,0.27" /><path
         id="path236"
         style="fill:#231f20;fill-opacity:1;fill-rule:nonzero;stroke:none"
         d="m 4112.58,4145.85 c -8.3,-0.38 -15.26,-0.85 -22.21,-0.99 -7.67,-0.15 -14.54,1.82 -14.84,10.96 -0.31,9.43 6.42,12.69 14.55,13.18 15.5,0.92 31.02,1.37 46.53,2.19 9.31,0.49 18.59,1.58 27.89,1.89 7.6,0.25 14.55,-1.92 14.88,-11.01 0.34,-8.95 -6.01,-11.68 -13.85,-12.23 -9.21,-0.65 -18.41,-1.5 -28.16,-2.3 -1.07,-23.1 -2.01,-45.15 -3.18,-67.18 -0.32,-6.18 -0.01,-12.93 -2.45,-18.29 -1.79,-3.93 -7.9,-8.61 -11.53,-8.19 -3.62,0.43 -9.17,6.68 -9.31,10.55 -0.51,13.52 1.23,27.12 1.6,40.71 0.35,13.1 0.08,26.22 0.08,40.71" /><path
         id="path238"
         style="fill:#f36648;fill-opacity:1;fill-rule:nonzero;stroke:none"
         d="m 4153.48,3610.42 c -11.51,4.61 -24.06,7.71 -34.4,14.28 -11.79,7.5 -10.68,19.18 0.42,27.7 17.19,13.19 51.35,11.85 67.32,-2.65 10.64,-9.67 10.22,-21.42 -2.51,-28.41 -8.87,-4.86 -19.25,-6.95 -30.83,-10.92" /><path
         id="path240"
         style="fill:#f36648;fill-opacity:1;fill-rule:nonzero;stroke:none"
         d="m 3903.39,3591.15 c -3.12,2.04 -11.78,4.7 -13.89,9.97 -2.09,5.26 0.58,14.49 4.36,19.59 8.34,11.26 20.84,15.65 34.96,13.96 14.31,-1.7 19.72,-12.82 12,-25.03 -7.66,-12.1 -19.55,-17.01 -37.43,-18.49" /><path
         id="path242"
         style="fill:#ffffff;fill-opacity:1;fill-rule:nonzero;stroke:none"
         d="m 3771.87,4108.02 c 1.65,10.95 3.28,21.91 4.94,32.86 0.11,0.76 0.31,2.1 0.62,2.15 10.14,1.64 20.26,3.94 30.46,4.4 6.92,0.32 14.1,-1.89 15.81,-10.6 1.7,-8.68 -2.93,-14.73 -9.98,-17.74 -12.64,-5.4 -25.83,-9.5 -38.78,-14.15 -1.02,1.02 -2.05,2.05 -3.07,3.08" /><path
         id="path244"
         style="fill:#ffffff;fill-opacity:1;fill-rule:nonzero;stroke:none"
         d="m 3939.87,4101.96 c -3.17,-7.9 -5.69,-18.7 -11.42,-27.38 -10.41,-15.79 -28.41,-14.2 -37.22,2.53 -9.07,17.25 -7.74,34.46 2.4,50.86 4.92,7.94 11.74,13.57 21.93,12.74 10.35,-0.82 15.71,-8.06 19.08,-16.57 2.38,-6 3.07,-12.66 5.23,-22.18" /></g></g></svg>